# Blender 5.0.1
# www.blender.org
o frame_low
v -1.000000 -1.000000 0.100000
v -1.000000 1.000000 0.100000
v -1.000000 -1.000000 -0.100000
v -1.000000 1.000000 -0.100000
v 1.000000 -1.000000 0.100000
v 1.000000 1.000000 0.100000
v 1.000000 -1.000000 -0.100000
v 1.000000 1.000000 -0.100000
v -0.738319 0.738319 -0.100000
v 0.738319 0.738319 -0.100000
v 0.738319 -0.738319 -0.100000
v -0.738319 -0.738319 -0.100000
v -0.738319 -0.738319 0.100000
v 0.738319 0.738319 0.100000
v -0.738319 0.738319 0.100000
v 0.738319 -0.738319 0.100000
v -0.738319 -0.738319 -0.055478
v -0.738319 -0.738319 0.055478
v -0.738319 0.738319 0.055478
v -0.738319 0.738319 -0.055478
v 0.738319 0.738319 -0.055478
v 0.738319 0.738319 0.055478
v 0.738319 -0.738319 0.055478
v 0.738319 -0.738319 -0.055478
v -0.738319 0.838319 0.055478
v -0.738319 0.838319 -0.055478
v 0.738319 0.838319 -0.055478
v 0.738319 0.838319 0.055478
v -0.838319 0.738319 0.055478
v -0.838319 0.738319 -0.055478
v -0.838319 -0.738319 -0.055478
v -0.838319 -0.738319 0.055478
v 0.838319 0.738319 -0.055478
v 0.838319 0.738319 0.055478
v 0.838319 -0.738319 0.055478
v 0.838319 -0.738319 -0.055478
v -0.738319 -0.838319 -0.055478
v -0.738319 -0.838319 0.055478
v 0.738319 -0.838319 0.055478
v 0.738319 -0.838319 -0.055478
vn -1.0000 -0.0000 -0.0000
vn -0.0000 1.0000 -0.0000
vn -0.0000 -1.0000 -0.0000
vn -0.0000 -0.0000 -1.0000
vn 1.0000 -0.0000 -0.0000
vn -0.0000 -0.0000 1.0000
vn -0.7071 -0.7071 -0.0000
vn 0.7071 -0.7071 -0.0000
vn 0.7071 0.7071 -0.0000
vn -0.7071 0.7071 -0.0000
vt 0.993498 0.243581
vt 0.673123 0.276497
vt 0.673032 0.244497
vt 0.673125 0.277096
vt 0.993682 0.308180
vt 0.673216 0.309096
vt 0.993403 0.210451
vt 0.672845 0.179300
vt 0.993311 0.178384
vt 0.667957 0.698507
vt 0.950981 0.741307
vt 0.710583 0.741129
vt 0.993190 0.135939
vt 0.714757 0.178648
vt 0.672724 0.136855
vt 0.993496 0.243049
vt 0.672939 0.211898
vt 0.993405 0.210983
vt 0.673310 0.341695
vt 0.673218 0.309628
vt 0.993684 0.308712
vt 0.400620 0.000977
vt 0.531205 0.868438
vt 0.400620 0.999022
vt 0.131562 0.999023
vt 0.000977 0.131562
vt 0.131562 0.000977
vt 0.134191 0.999023
vt 0.264776 0.131562
vt 0.264776 0.868438
vt 0.397990 0.000977
vt 0.267406 0.868438
vt 0.267405 0.131562
vt 0.667989 0.655376
vt 0.951013 0.698176
vt 0.710615 0.697998
vt 0.667925 0.741705
vt 0.950949 0.784505
vt 0.710551 0.784327
vt 0.902952 0.395209
vt 0.885194 0.412319
vt 0.885481 0.394921
vt 0.992128 0.906146
vt 0.671100 0.927986
vt 0.671095 0.906228
vt 0.994815 0.003970
vt 0.668536 0.026768
vt 0.668490 0.004652
vt 0.671118 0.995424
vt 0.992145 0.973584
vt 0.992151 0.995342
vt 0.631682 0.999020
vt 0.661774 0.000977
vt 0.661774 0.999020
vt 0.630328 0.999022
vt 0.600236 0.000977
vt 0.630328 0.000977
vt 0.993655 0.834957
vt 0.672619 0.825380
vt 0.993653 0.825298
vt 0.993650 0.814825
vt 0.672619 0.824658
vt 0.672617 0.814908
vt 0.993650 0.814103
vt 0.672614 0.804526
vt 0.993647 0.804443
vt 0.568790 0.999021
vt 0.598882 0.000977
vt 0.598882 0.999021
vt 0.994417 0.791340
vt 0.673386 0.801082
vt 0.673384 0.791422
vt 0.567436 0.999023
vt 0.537344 0.000977
vt 0.567436 0.000977
vt 0.668589 0.052096
vt 0.994863 0.026820
vt 0.994914 0.051414
vt 0.867143 0.412022
vt 0.884901 0.394911
vt 0.884615 0.412310
vt 0.992140 0.951105
vt 0.671112 0.972945
vt 0.671106 0.951187
vt 0.671094 0.905506
vt 0.992122 0.883666
vt 0.992128 0.905424
vt 0.667791 0.104156
vt 0.994263 0.079322
vt 0.994280 0.103928
vt 0.939932 0.377689
vt 0.957403 0.377976
vt 0.957116 0.395447
vt 0.952474 0.340925
vt 0.974964 0.370555
vt 0.951992 0.370177
vt 0.992117 0.861187
vt 0.671088 0.883027
vt 0.671083 0.861269
vt 0.994916 0.052148
vt 0.668642 0.077332
vt 0.668591 0.052830
vt 0.671083 0.860457
vt 0.992110 0.838707
vt 0.992116 0.860464
vt 0.930276 0.340560
vt 0.906823 0.369434
vt 0.907305 0.340182
vt 0.921583 0.395515
vt 0.938767 0.413201
vt 0.921297 0.412914
vt 0.994280 0.104662
vt 0.667808 0.129405
vt 0.667791 0.104890
vt 0.671106 0.950465
vt 0.992134 0.928625
vt 0.992139 0.950383
vt 0.921881 0.377392
vt 0.939065 0.395150
vt 0.921594 0.394862
vt 0.906616 0.340170
vt 0.883077 0.369043
vt 0.883559 0.339791
vt 0.882389 0.369031
vt 0.859899 0.339401
vt 0.882870 0.339780
vt 0.920716 0.412904
vt 0.903245 0.412616
vt 0.921003 0.395506
vt 0.956818 0.413498
vt 0.939347 0.413211
vt 0.957105 0.396100
vt 0.945436 0.355439
vt 0.930483 0.369823
vt 0.930965 0.340571
vt 0.993591 0.276180
vt 0.672937 0.211366
vt 0.993603 0.698748
vt 0.951331 0.177972
vt 0.673030 0.243965
vt 0.531205 0.131561
vt 0.000977 0.868438
vt 0.134191 0.000977
vt 0.397990 0.999023
vt 0.993635 0.655617
vt 0.993571 0.741947
vt 0.992133 0.927903
vt 0.994862 0.026086
vt 0.671112 0.973667
vt 0.631682 0.000977
vt 0.600236 0.999022
vt 0.672622 0.835040
vt 0.993653 0.824575
vt 0.672616 0.814186
vt 0.568790 0.000977
vt 0.994420 0.801000
vt 0.537344 0.999023
vt 0.668538 0.027502
vt 0.992145 0.972863
vt 0.671089 0.883749
vt 0.667773 0.079550
vt 0.975445 0.341303
vt 0.992122 0.882944
vt 0.994967 0.076650
vt 0.671078 0.838789
vt 0.929795 0.369812
vt 0.994298 0.129176
vt 0.671100 0.928708
vt 0.906135 0.369422
vt 0.859417 0.368653
s 1
f 2/1/1 3/2/1 1/3/1
f 2/4/2 8/5/2 4/6/2
f 5/7/3 3/8/3 7/9/3
f 3/10/4 9/11/4 12/12/4
f 3/13/4 11/14/4 7/15/4
f 6/16/5 7/17/5 8/18/5
f 2/19/1 4/20/1 3/21/1
f 1/22/6 15/23/6 2/24/6
f 6/25/6 16/26/6 5/27/6
f 6/28/6 15/29/6 14/30/6
f 1/31/6 16/32/6 13/33/6
f 4/34/4 10/35/4 9/36/4
f 8/37/4 11/38/4 10/39/4
s 0
f 29/40/4 25/41/4 19/42/4
f 17/43/6 40/44/6 24/45/6
f 24/46/6 33/47/6 21/48/6
f 20/49/6 31/50/6 17/51/6
f 18/52/5 15/53/5 13/54/5
f 18/55/2 16/56/2 23/57/2
f 12/58/5 20/59/5 17/60/5
f 12/61/2 24/62/2 11/63/2
f 9/64/3 21/65/3 20/66/3
f 19/67/3 14/68/3 15/69/3
f 11/70/1 21/71/1 10/72/1
f 23/73/1 14/74/1 22/75/1
f 27/76/3 25/77/3 26/78/3
f 28/79/4 34/80/4 22/81/4
f 19/82/4 28/83/4 22/84/4
f 21/85/6 26/86/6 20/87/6
f 30/88/5 32/89/5 31/90/5
f 37/91/6 17/92/6 31/93/6
f 28/94/7 33/95/7 34/96/7
f 18/97/4 29/98/4 19/99/4
f 34/100/1 36/101/1 35/102/1
f 22/103/4 35/104/4 23/105/4
f 30/106/8 25/107/8 29/108/8
f 26/109/6 30/110/6 20/111/6
f 39/112/2 37/113/2 38/114/2
f 23/115/4 38/116/4 18/117/4
f 38/118/4 32/119/4 18/120/4
f 37/121/9 32/122/9 38/123/9
f 40/124/10 35/125/10 36/126/10
f 23/127/4 35/128/4 39/129/4
f 24/130/6 40/131/6 36/132/6
f 21/133/6 33/134/6 27/135/6
s 1
f 2/4/2 6/136/2 8/5/2
f 5/7/3 1/137/3 3/8/3
f 3/10/4 4/138/4 9/11/4
f 3/13/4 12/139/4 11/14/4
f 6/16/5 5/140/5 7/17/5
f 1/22/6 13/141/6 15/23/6
f 6/25/6 14/142/6 16/26/6
f 6/28/6 2/143/6 15/29/6
f 1/31/6 5/144/6 16/32/6
f 4/34/4 8/145/4 10/35/4
f 8/37/4 7/146/4 11/38/4
s 0
f 17/43/6 37/147/6 40/44/6
f 24/46/6 36/148/6 33/47/6
f 20/49/6 30/149/6 31/50/6
f 18/52/5 19/150/5 15/53/5
f 18/55/2 13/151/2 16/56/2
f 12/58/5 9/152/5 20/59/5
f 12/61/2 17/153/2 24/62/2
f 9/64/3 10/154/3 21/65/3
f 19/67/3 22/155/3 14/68/3
f 11/70/1 24/156/1 21/71/1
f 23/73/1 16/157/1 14/74/1
f 27/76/3 28/158/3 25/77/3
f 19/82/4 25/159/4 28/83/4
f 21/85/6 27/160/6 26/86/6
f 30/88/5 29/161/5 32/89/5
f 28/94/7 27/162/7 33/95/7
f 18/97/4 32/163/4 29/98/4
f 34/100/1 33/164/1 36/101/1
f 22/103/4 34/165/4 35/104/4
f 30/106/8 26/166/8 25/107/8
f 39/112/2 40/167/2 37/113/2
f 23/115/4 39/168/4 38/116/4
f 37/121/9 31/169/9 32/122/9
f 40/124/10 39/170/10 35/125/10
