# Blender 5.0.1
# www.blender.org
o Skyscraper_centre
v -7.590125 0.000000 -18.422569
v -5.000000 116.000000 -15.000000
v -7.590125 0.000000 -35.267708
v -5.000000 116.000000 -25.000000
v 7.590125 0.000000 -18.422569
v 5.000000 116.000000 -15.000000
v 7.590125 0.000000 -35.267708
v 5.000000 116.000000 -25.000000
v -5.000000 25.206783 -25.000000
v 5.000000 25.206783 -25.000000
v -7.590125 0.000000 15.267710
v -5.000000 116.000000 5.000000
v -7.590125 0.000000 -1.577431
v -5.000000 116.000000 -5.000000
v 7.590125 0.000000 15.267710
v 5.000000 116.000000 5.000000
v 7.590125 0.000000 -1.577431
v 5.000000 116.000000 -5.000000
v -5.000000 25.206783 5.000000
v 5.000000 25.206783 5.000000
v 5.000000 15.697849 5.000000
v -5.000000 15.697849 5.000000
v -5.000000 15.697849 -25.000000
v 5.000000 15.697849 -25.000000
v -5.000000 25.206783 -10.828499
v -5.000000 29.378284 -15.000000
v -5.000000 25.206783 -19.171501
v -5.000000 21.035282 -15.000000
v -5.000000 25.524321 -12.424863
v -5.000000 26.428587 -13.778195
v -5.000000 27.781919 -14.682463
v 5.000000 29.378284 -15.000000
v 5.000000 25.206783 -10.828499
v 5.000000 21.035282 -15.000000
v 5.000000 25.206783 -19.171501
v 5.000000 27.781919 -14.682463
v 5.000000 26.428587 -13.778195
v 5.000000 25.524321 -12.424863
v -5.000000 29.378284 -5.000000
v -5.000000 25.206783 -9.171501
v -5.000000 21.035282 -5.000000
v -5.000000 25.206783 -0.828498
v -5.000000 27.781919 -5.317537
v -5.000000 26.428587 -6.221805
v -5.000000 25.524321 -7.575137
v 5.000000 25.206783 -9.171501
v 5.000000 29.378284 -5.000000
v 5.000000 25.206783 -0.828498
v 5.000000 21.035282 -5.000000
v 5.000000 25.524321 -7.575137
v 5.000000 26.428587 -6.221805
v 5.000000 27.781919 -5.317537
v -5.000000 15.697849 -9.171501
v -5.000000 11.526348 -5.000000
v -5.000000 15.697849 -0.828498
v -5.000000 19.869350 -5.000000
v -5.000000 15.380312 -7.575137
v -5.000000 14.476045 -6.221805
v -5.000000 13.122712 -5.317537
v 5.000000 11.526348 -5.000000
v 5.000000 15.697849 -9.171501
v 5.000000 19.869350 -5.000000
v 5.000000 15.697849 -0.828498
v 5.000000 13.122712 -5.317537
v 5.000000 14.476045 -6.221805
v 5.000000 15.380312 -7.575137
v 5.000000 15.697849 -10.828499
v 5.000000 11.526348 -15.000000
v 5.000000 15.697849 -19.171501
v 5.000000 19.869350 -15.000000
v 5.000000 15.380312 -12.424863
v 5.000000 14.476045 -13.778195
v 5.000000 13.122712 -14.682463
v -5.000000 11.526348 -15.000000
v -5.000000 15.697849 -10.828499
v -5.000000 19.869350 -15.000000
v -5.000000 15.697849 -19.171501
v -5.000000 13.122712 -14.682463
v -5.000000 14.476045 -13.778195
v -5.000000 15.380312 -12.424863
v 5.932317 4.836444 9.336802
v 4.986278 11.322969 5.493931
v 5.455058 6.728053 7.567970
v 5.108784 9.102285 6.161382
v 4.991699 9.707464 -4.900397
v 6.280741 2.994774 -3.138897
v 5.158175 7.444488 -4.589726
v 5.629996 4.987473 -3.944973
v -5.932317 4.836444 9.336802
v -4.986278 11.322969 5.493931
v -5.455058 6.728053 7.567970
v -5.108784 9.102285 6.161382
v -4.991699 9.707464 -4.900397
v -6.280741 2.994774 -3.138897
v -5.158175 7.444488 -4.589726
v -5.629997 4.987473 -3.944973
v 4.991699 9.707464 -15.099604
v 6.280741 2.994774 -16.861103
v 5.158175 7.444488 -15.410275
v 5.629996 4.987473 -16.055027
v -6.280741 2.994774 -16.861103
v -4.991699 9.707464 -15.099604
v -5.629996 4.987473 -16.055027
v -5.158175 7.444488 -15.410275
v 5.932318 4.836444 -29.336802
v 4.986278 11.322969 -25.493931
v 5.455059 6.728053 -27.567970
v 5.108784 9.102285 -26.161383
v -5.932318 4.836444 -29.336802
v -4.986278 11.322969 -25.493931
v -5.455059 6.728053 -27.567970
v -5.108784 9.102285 -26.161383
v -5.000000 34.286678 5.000000
v -5.000000 34.286690 -15.000000
v -5.000000 34.286678 -5.000000
v -5.000000 34.286674 -25.000000
v 5.000000 34.188370 -5.000000
v 5.000000 34.342499 -25.000000
v 5.000000 34.265427 -15.000000
v 5.000000 34.111290 5.000000
vn -0.7068 -0.0001 -0.7074
vn 0.5456 -0.0000 -0.8381
vn -0.3882 -0.0000 -0.9216
vn 0.2619 -0.8808 -0.3945
vn -0.2427 -0.9538 0.1772
vn -0.5022 -0.7477 -0.4345
vn -0.6970 0.0925 -0.7111
vn 0.7113 0.0943 0.6966
vn 0.7042 0.0898 -0.7043
vn 0.2922 0.0360 -0.9557
vn -0.7111 0.0259 -0.7026
vn 0.7065 -0.0001 0.7077
vn -0.5481 -0.0000 0.8364
vn 0.3871 -0.0000 0.9220
vn 0.2562 -0.9614 -0.1000
vn -0.2619 -0.8808 0.3945
vn -0.4303 -0.8463 -0.3142
vn -0.8886 0.1132 -0.4444
vn 0.6967 0.0942 0.7111
vn 0.4393 0.0582 -0.8964
vn -0.2922 0.0360 0.9557
vn 0.7111 0.0259 0.7026
vn -0.3411 0.4164 0.8427
vn -1.0000 -0.0000 -0.0000
vn -0.6757 0.5546 0.4856
vn 0.3411 0.8427 0.4164
vn 1.0000 -0.0000 -0.0000
vn 0.6757 0.4856 0.5546
vn -0.3411 0.8427 -0.4164
vn -0.6757 0.4856 -0.5546
vn 0.3411 0.4164 -0.8427
vn 0.6757 0.5546 -0.4856
vn -0.3411 -0.4164 -0.8427
vn -1.0000 -0.0009 0.0003
vn -0.6757 -0.5546 -0.4856
vn 0.3411 -0.8427 -0.4164
vn 0.6757 -0.4856 -0.5546
vn 0.3411 -0.4164 0.8427
vn 1.0000 -0.0009 -0.0003
vn 0.6757 -0.5546 0.4856
vn -0.3411 -0.8427 0.4164
vn -0.6757 -0.4856 0.5546
vn -0.6581 0.0386 0.7520
vn 0.3411 0.3015 0.8904
vn 0.8731 0.0246 0.4869
vn -0.3411 0.4164 0.8428
vn 0.6758 0.4855 0.5546
vn -0.6758 0.5546 0.4856
vn 0.3411 0.8428 0.4164
vn 0.6758 0.4856 0.5546
vn -0.3411 0.8904 0.3015
vn 0.8659 0.4958 0.0658
vn 0.8173 0.0468 -0.5744
vn -0.3411 0.3015 -0.8904
vn -0.7109 0.0208 -0.7030
vn 0.3411 0.4164 -0.8428
vn -0.6758 0.4855 -0.5546
vn 0.6758 0.5546 -0.4856
vn -0.3411 0.8428 -0.4164
vn -0.6758 0.4856 -0.5546
vn 0.3411 0.8904 -0.3015
vn -0.8659 0.4958 -0.0658
vn 0.7936 -0.6055 -0.0604
vn -0.3411 -0.8904 -0.3015
vn -0.8873 -0.4589 -0.0458
vn 0.3411 -0.8428 -0.4164
vn -0.6758 -0.5546 -0.4855
vn 0.6758 -0.4856 -0.5546
vn -0.3411 -0.4164 -0.8428
vn -0.6758 -0.5546 -0.4856
vn 0.3411 -0.3015 -0.8904
vn -0.3165 -0.1396 -0.9383
vn -0.7936 -0.6055 0.0604
vn 0.3411 -0.8904 0.3015
vn 0.8873 -0.4589 0.0458
vn -0.3411 -0.8428 0.4164
vn 0.6758 -0.5546 0.4855
vn -0.6758 -0.4856 0.5546
vn 0.3411 -0.4164 0.8428
vn 0.6758 -0.5546 0.4856
vn -0.3411 -0.3015 0.8904
vn 0.3165 -0.1396 0.9383
vn 0.6867 -0.0000 0.7270
vn -0.6581 0.0385 0.7520
vn 0.8731 0.0245 0.4869
vn -0.3883 -0.0000 -0.9215
vn -0.7111 0.0260 -0.7026
vn -0.7897 0.6121 0.0407
vn 0.7897 0.6121 -0.0407
vn -0.6580 0.0385 0.7520
vn -0.7139 -0.0000 0.7002
vn -0.7068 0.0001 -0.7075
vn -0.7897 0.6122 0.0406
vn -0.7936 -0.6055 0.0603
vn 0.7191 0.0001 -0.6949
vn 0.8873 -0.4588 0.0457
vn 0.8739 -0.0001 -0.4861
vn 0.8173 0.0466 -0.5744
vn -0.7311 -0.0000 0.6823
vn -0.7108 0.0208 -0.7030
vn 0.8172 0.0467 -0.5744
vn 0.8739 -0.0000 -0.4861
vn 0.7065 0.0001 0.7077
vn 0.3872 -0.0000 0.9220
vn 0.7111 0.0260 0.7026
vn 0.7936 -0.6055 -0.0603
vn -0.8873 -0.4589 -0.0456
vn -0.7071 -0.0722 -0.7035
vn -0.6573 0.5639 0.4999
vn -0.7116 -0.0601 -0.7000
vn -0.7117 -0.0602 -0.6999
vn -0.6972 0.3891 0.6020
vn -0.7022 -0.0514 -0.7101
vn -0.7023 -0.0514 -0.7101
vn -0.8016 0.1453 0.5800
vn -0.8048 -0.0356 -0.5924
vn -0.7072 -0.0722 -0.7034
vn 0.7114 -0.0916 -0.6968
vn 0.6465 -0.1427 -0.7494
vn 0.7060 -0.0789 -0.7038
vn 0.7114 -0.0917 -0.6968
vn -0.7023 -0.0514 -0.7100
vn 0.7797 -0.0560 -0.6237
vn 0.7060 -0.0790 -0.7038
vn 0.4587 0.7350 0.4993
vn -0.6573 0.5640 0.4998
vn -0.6862 0.6393 0.3470
vn 0.6614 0.5294 0.5313
vn -0.6973 0.3892 0.6019
vn -0.6574 0.5640 0.4998
vn 0.7028 0.3397 0.6251
vn -0.8016 0.1454 0.5799
vn -0.6973 0.3891 0.6020
vn 0.6465 -0.1426 -0.7495
vn 0.4587 0.7350 0.4994
vn 0.7114 -0.0918 -0.6968
vn 0.7027 0.3397 0.6251
vn 0.7059 -0.0790 -0.7039
vn 0.7592 0.1192 0.6398
vn 0.7027 0.3396 0.6252
vn 0.5603 -0.1872 0.8068
vn 0.6573 0.5639 -0.4999
vn 0.7116 -0.0601 0.7000
vn 0.7117 -0.0602 0.6999
vn 0.6972 0.3891 -0.6020
vn 0.7022 -0.0514 0.7101
vn 0.7023 -0.0514 0.7101
vn 0.8016 0.1453 -0.5800
vn 0.8048 -0.0356 0.5924
vn -0.4587 0.7350 -0.4994
vn 0.6573 0.5640 -0.4998
vn 0.6862 0.6393 -0.3470
vn -0.6614 0.5294 -0.5313
vn 0.6973 0.3892 -0.6019
vn 0.6574 0.5640 -0.4998
vn -0.7028 0.3397 -0.6251
vn 0.8016 0.1454 -0.5799
vn 0.6973 0.3891 -0.6020
vn -0.8137 0.0093 0.5811
vn -0.7114 -0.0918 0.6968
vn -0.7027 0.3397 -0.6251
vn -0.7059 -0.0790 0.7039
vn -0.7592 0.1192 -0.6398
vn -0.7027 0.3396 -0.6252
vn 0.5604 -0.1872 0.8068
vn -0.7114 -0.0916 0.6968
vn -0.8138 0.0092 0.5811
vn -0.7060 -0.0789 0.7038
vn -0.7114 -0.0917 0.6968
vn 0.7023 -0.0514 0.7100
vn -0.7797 -0.0560 0.6237
vn -0.7060 -0.0790 0.7038
vn 0.2563 -0.9614 -0.1001
vn 0.5022 -0.7477 0.4344
vn 0.7593 0.1192 0.6398
vn -0.2922 0.0361 0.9557
vn 0.5022 -0.7478 0.4344
vn 0.7796 -0.0559 -0.6238
vn 0.3139 -0.0958 -0.9446
vn 1.0000 -0.0010 0.0004
vn -0.4303 -0.8463 -0.3141
vn 0.2563 -0.9614 -0.1000
vn -0.8049 -0.0357 -0.5924
vn 0.3138 -0.0958 -0.9446
vn 0.7796 -0.0560 -0.6237
vn -0.2923 0.0360 0.9557
vn -1.0000 -0.0008 0.0003
vn -0.6861 0.6393 0.3471
vn -0.4302 -0.8463 -0.3142
vn -0.2619 -0.8807 0.3946
vn 0.8049 -0.0357 0.5924
vn -0.3138 -0.0958 0.9446
vn -0.7796 -0.0560 0.6237
vn 0.6861 0.6393 -0.3471
vn 0.4792 -0.8576 0.1870
vn 0.2619 -0.8807 -0.3946
vn 0.2923 0.0360 -0.9557
vn 1.0000 -0.0008 -0.0003
vn 0.5604 -0.1873 0.8068
vn -0.2428 -0.9537 0.1772
vn 0.4791 -0.8576 0.1870
vn -0.2428 -0.9537 0.1773
vn -0.5022 -0.7477 -0.4344
vn -0.7796 -0.0559 0.6238
vn -0.3139 -0.0958 0.9446
vn -1.0000 -0.0010 -0.0004
vn -0.7593 0.1192 -0.6398
vn 0.2922 0.0361 -0.9557
vn -0.5022 -0.7478 -0.4344
vn -0.7311 0.0001 0.6823
vn -0.8887 0.1133 -0.4443
vn -0.4649 -0.0000 -0.8854
vn -0.7139 0.0001 0.7002
vn -0.6969 0.0926 -0.7112
vn -0.7068 -0.0000 -0.7075
vn 0.7065 -0.0000 0.7077
vn 0.7191 -0.0000 -0.6949
vn 0.7111 0.0944 0.6967
vn 0.6866 -0.0000 0.7270
vn -0.4648 -0.0000 -0.8854
vn 0.4393 0.0583 -0.8964
vn -0.7311 -0.0000 0.6822
vn 0.6968 0.0943 0.7111
vn -0.7043 0.0898 0.7042
vn -0.7140 -0.0000 0.7002
vn 0.7112 0.0944 0.6966
vn 0.7192 -0.0000 -0.6949
vn -0.6969 0.0925 -0.7111
vn 0.7043 0.0898 -0.7042
vn -0.7068 -0.0000 -0.7074
vn 0.5456 0.0001 -0.8381
vn 0.4792 -0.8575 0.1870
vn -0.7042 0.0897 0.7043
vn 0.7111 0.0943 0.6967
vn 0.5022 -0.7477 0.4345
vn -0.7897 0.6122 0.0408
vn 0.7897 0.6122 -0.0408
vn 0.8172 0.0466 -0.5744
vn -0.8873 -0.4588 -0.0457
vn -0.3166 -0.1396 -0.9382
vn 0.3166 -0.1396 0.9382
vn -0.6758 0.5546 0.4855
vn 0.8659 0.4958 0.0659
vn 0.8173 0.0467 -0.5744
vn 0.6758 0.5546 -0.4855
vn -0.8659 0.4958 -0.0659
vn 0.6758 -0.4855 -0.5546
vn -0.6758 -0.4855 0.5546
vn -0.6580 0.0384 0.7520
vn -0.7897 0.6122 0.0407
vn 0.5455 -0.0000 -0.8381
vn 0.7897 0.6122 -0.0407
vn 0.7897 0.6122 -0.0406
vn 0.2923 0.0361 -0.9557
vn 0.5455 -0.0001 -0.8381
vn -0.2923 0.0361 0.9557
vn -0.5481 -0.0001 0.8364
vn 0.8873 -0.4589 0.0456
vn -0.7071 -0.0723 -0.7034
vn -0.6861 0.6394 0.3471
vn -0.6573 0.5640 0.4999
vn -0.6972 0.3892 0.6020
vn -0.8016 0.1454 0.5800
vn -0.7117 -0.0601 -0.6999
vn -0.7117 -0.0600 -0.6999
vn -0.8049 -0.0356 -0.5924
vn 0.7797 -0.0559 -0.6237
vn 0.6615 0.5294 0.5312
vn 0.7028 0.3396 0.6251
vn -0.6973 0.3892 0.6020
vn 0.7113 -0.0917 -0.6968
vn 0.7027 0.3398 0.6251
vn 0.7059 -0.0789 -0.7039
vn 0.7796 -0.0560 -0.6238
vn 0.7592 0.1193 0.6398
vn 0.6861 0.6394 -0.3471
vn 0.6573 0.5640 -0.4999
vn 0.6972 0.3892 -0.6020
vn 0.8016 0.1454 -0.5800
vn -0.6615 0.5294 -0.5312
vn -0.7028 0.3396 -0.6251
vn 0.6973 0.3892 -0.6020
vn -0.8138 0.0093 0.5811
vn -0.7113 -0.0917 0.6968
vn -0.7027 0.3398 -0.6251
vn -0.7059 -0.0789 0.7039
vn -0.7796 -0.0560 0.6238
vn -0.7592 0.1193 -0.6398
vn 0.7117 -0.0601 0.6999
vn 0.7117 -0.0600 0.6999
vn 0.8049 -0.0356 0.5924
vn -0.7797 -0.0559 0.6237
vn 0.7593 0.1191 0.6398
vn -0.6861 0.6394 0.3470
vn -0.2618 -0.8808 0.3945
vn -0.8015 0.1454 0.5800
vn -0.7071 -0.0722 -0.7034
vn 0.8015 0.1454 -0.5800
vn -0.2428 -0.9538 0.1772
vn -0.7593 0.1191 -0.6398
vn 0.6861 0.6394 -0.3470
vn 0.2618 -0.8808 -0.3945
vn -0.7042 0.0898 0.7043
vn -0.7139 -0.0001 0.7002
vn 0.4394 0.0583 -0.8964
vn -0.7140 0.0001 0.7002
vn 0.7112 0.0945 0.6966
vt 0.935759 0.280239
vt 0.935915 0.291852
vt 0.938768 0.324138
vt 0.934793 0.324061
vt 0.934364 0.175730
vt 0.932004 0.175685
vt 0.936077 0.304014
vt 0.928683 0.280328
vt 0.928835 0.291717
vt 0.930818 0.323985
vt 0.926842 0.323909
vt 0.929644 0.175640
vt 0.927284 0.175595
vt 0.928997 0.303878
vt 0.933436 0.288512
vt 0.934539 0.291826
vt 0.933245 0.290239
vt 0.932941 0.291389
vt 0.933626 0.297142
vt 0.931797 0.291367
vt 0.931266 0.297097
vt 0.931462 0.290205
vt 0.931226 0.288470
vt 0.930210 0.291743
vt 0.931476 0.307219
vt 0.930373 0.303905
vt 0.931666 0.305492
vt 0.931970 0.304341
vt 0.931286 0.298588
vt 0.933686 0.307261
vt 0.934701 0.303988
vt 0.933450 0.305526
vt 0.933115 0.304363
vt 0.933646 0.298634
vt 0.933483 0.286472
vt 0.932570 0.291788
vt 0.931123 0.286427
vt 0.932179 0.291781
vt 0.932342 0.303942
vt 0.931428 0.309259
vt 0.932733 0.303950
vt 0.933788 0.309304
vt 0.933400 0.280221
vt 0.933399 0.280194
vt 0.935758 0.280168
vt 0.931041 0.280275
vt 0.928680 0.280104
vt 0.931135 0.320162
vt 0.928544 0.315339
vt 0.931291 0.317617
vt 0.928836 0.312309
vt 0.931401 0.314478
vt 0.928955 0.309471
vt 0.931436 0.311585
vt 0.928159 0.317750
vt 0.934373 0.320224
vt 0.936836 0.315498
vt 0.934149 0.317672
vt 0.936464 0.312455
vt 0.933955 0.314526
vt 0.936268 0.309612
vt 0.933843 0.311631
vt 0.937286 0.317925
vt 0.931040 0.280149
s 0
f 116/1/1 10/2/2 9/2/3
f 7/3/4 1/4/5 3/3/6
f 4/5/7 6/6/8 8/5/9
f 9/2/3 24/7/10 23/7/11
f 120/8/12 19/9/13 20/9/14
f 17/10/15 11/11/16 13/10/17
f 14/12/18 16/13/19 18/12/20
f 20/9/14 22/14/21 21/14/22
f 31/15/23 27/16/24 30/17/25
f 38/18/26 34/19/27 37/17/28
f 45/20/29 41/21/24 44/22/30
f 52/23/31 48/24/27 51/22/32
f 59/25/33 55/26/34 58/27/35
f 66/28/36 62/29/27 65/27/37
f 73/30/38 69/31/39 72/32/40
f 80/33/41 76/34/24 79/32/42
f 26/35/43 36/15/44 32/35/45
f 31/15/46 37/17/47 36/15/44
f 30/17/48 38/18/49 37/17/50
f 29/18/51 33/36/52 38/18/49
f 47/37/53 43/23/54 39/37/55
f 52/23/56 44/22/57 43/23/54
f 51/22/58 45/20/59 44/22/60
f 50/20/61 40/38/62 45/20/59
f 61/39/63 57/28/64 53/39/65
f 66/28/66 58/27/67 57/28/64
f 65/27/68 59/25/69 58/27/70
f 64/25/71 54/40/72 59/25/69
f 75/41/73 71/33/74 67/41/75
f 80/33/76 72/32/77 71/33/74
f 79/32/78 73/30/79 72/32/80
f 78/30/81 68/42/82 73/30/79
f 119/43/83 26/35/84 32/35/85
f 27/16/24 9/2/86 23/7/87
f 25/36/88 46/38/89 33/36/52
f 26/35/90 114/44/91 116/1/92
f 25/36/93 28/19/24 75/41/94
f 118/45/95 32/35/85 35/16/27
f 67/41/96 70/34/27 33/36/52
f 34/19/27 70/34/27 69/31/39
f 39/37/55 117/46/97 47/37/98
f 113/47/99 39/37/100 42/24/24
f 41/21/24 56/29/24 55/26/34
f 47/37/101 117/46/102 120/8/103
f 48/24/27 20/9/104 21/14/105
f 75/41/94 61/39/106 53/39/107
f 94/48/108 91/49/109 96/50/110
f 96/50/111 92/51/112 95/52/113
f 95/52/114 90/53/115 93/54/116
f 94/48/117 88/50/118 86/48/119
f 96/50/111 87/52/120 88/50/121
f 95/52/122 85/54/123 87/52/124
f 81/55/125 91/49/126 89/55/127
f 83/49/128 92/51/129 91/49/130
f 84/51/131 90/53/132 92/51/133
f 86/48/134 83/49/128 81/55/135
f 88/50/136 84/51/137 83/49/128
f 87/52/138 82/53/139 84/51/140
f 98/56/141 107/57/142 100/58/143
f 100/58/144 108/59/145 99/60/146
f 99/60/147 106/61/148 97/62/149
f 109/63/150 107/57/151 105/63/152
f 111/57/153 108/59/154 107/57/155
f 112/59/156 106/61/157 108/59/158
f 101/56/159 111/57/153 109/63/150
f 103/58/160 112/59/161 111/57/153
f 104/60/162 110/61/163 112/59/164
f 98/56/165 103/58/166 101/56/167
f 100/58/144 104/60/168 103/58/169
f 99/60/170 102/62/171 104/60/172
f 17/10/173 81/55/135 15/11/174
f 82/53/175 22/14/176 90/53/132
f 81/55/135 11/11/16 15/11/177
f 85/54/178 60/40/179 63/26/180
f 13/10/181 86/48/119 17/10/182
f 93/54/183 60/40/184 85/54/185
f 90/53/115 22/14/186 55/26/187
f 89/55/188 13/10/189 11/11/190
f 97/62/191 74/42/192 102/62/193
f 105/63/194 5/4/195 7/3/196
f 106/61/148 24/7/197 69/31/198
f 98/56/199 1/4/200 5/4/201
f 1/4/202 109/63/150 3/3/203
f 102/62/204 74/42/205 77/31/206
f 110/61/207 24/7/208 106/61/157
f 109/63/150 7/3/4 3/3/209
f 113/47/210 14/12/211 115/64/212
f 114/44/213 4/5/214 116/1/215
f 117/46/102 16/13/19 120/8/216
f 118/45/217 6/6/218 119/43/219
f 115/64/220 18/12/221 117/46/97
f 113/47/222 16/13/223 12/13/224
f 114/44/225 6/6/226 2/6/224
f 118/45/227 4/5/228 8/5/229
f 116/1/230 118/45/227 10/2/231
f 7/3/4 5/4/232 1/4/5
f 4/5/7 2/6/233 6/6/234
f 9/2/3 10/2/2 24/7/208
f 120/8/216 113/47/222 19/9/13
f 17/10/15 15/11/235 11/11/16
f 14/12/18 12/13/233 16/13/19
f 20/9/14 19/9/13 22/14/176
f 28/19/24 25/36/236 29/18/51
f 28/19/24 29/18/51 30/17/25
f 26/35/90 27/16/24 31/15/23
f 27/16/24 28/19/24 30/17/25
f 35/16/27 32/35/45 36/15/44
f 35/16/27 36/15/44 37/17/28
f 33/36/52 34/19/27 38/18/26
f 34/19/27 35/16/27 37/17/28
f 42/24/24 39/37/100 43/23/54
f 42/24/24 43/23/54 44/22/30
f 40/38/62 41/21/24 45/20/29
f 41/21/24 42/24/24 44/22/30
f 49/21/27 46/38/237 50/20/61
f 49/21/27 50/20/61 51/22/32
f 47/37/238 48/24/27 52/23/31
f 48/24/27 49/21/27 51/22/32
f 56/29/24 53/39/239 57/28/64
f 56/29/24 57/28/64 58/27/35
f 54/40/240 55/26/34 59/25/33
f 55/26/34 56/29/24 58/27/35
f 63/26/180 60/40/179 64/25/71
f 63/26/180 64/25/71 65/27/37
f 61/39/106 62/29/27 66/28/36
f 62/29/27 63/26/180 65/27/37
f 70/34/27 67/41/96 71/33/74
f 70/34/27 71/33/74 72/32/40
f 68/42/241 69/31/39 73/30/38
f 69/31/39 70/34/27 72/32/40
f 77/31/206 74/42/205 78/30/81
f 77/31/206 78/30/81 79/32/42
f 75/41/94 76/34/24 80/33/41
f 76/34/24 77/31/206 79/32/42
f 26/35/84 31/15/46 36/15/44
f 31/15/46 30/17/48 37/17/50
f 30/17/242 29/18/51 38/18/49
f 29/18/51 25/36/88 33/36/243
f 47/37/244 52/23/56 43/23/54
f 52/23/56 51/22/58 44/22/60
f 51/22/245 50/20/61 45/20/59
f 50/20/61 46/38/89 40/38/246
f 61/39/63 66/28/66 57/28/64
f 66/28/66 65/27/68 58/27/70
f 65/27/247 64/25/71 59/25/69
f 64/25/71 60/40/184 54/40/72
f 75/41/73 80/33/76 71/33/74
f 80/33/76 79/32/78 72/32/80
f 79/32/248 78/30/81 73/30/79
f 78/30/81 74/42/192 68/42/82
f 119/43/83 114/44/225 26/35/84
f 23/7/87 77/31/206 27/16/24
f 77/31/206 76/34/24 27/16/24
f 76/34/24 28/19/24 27/16/24
f 25/36/88 40/38/62 46/38/89
f 9/2/86 27/16/24 116/1/215
f 27/16/24 26/35/249 116/1/215
f 28/19/24 76/34/24 75/41/94
f 75/41/94 53/39/239 40/38/62
f 53/39/239 56/29/24 40/38/62
f 56/29/24 41/21/24 40/38/62
f 40/38/62 25/36/250 75/41/94
f 35/16/27 10/2/251 118/45/217
f 118/45/217 119/43/219 32/35/45
f 70/34/27 34/19/27 33/36/52
f 33/36/52 46/38/252 61/39/106
f 46/38/253 49/21/27 61/39/106
f 49/21/27 62/29/27 61/39/106
f 61/39/106 67/41/96 33/36/52
f 69/31/39 24/7/254 10/2/255
f 10/2/251 35/16/27 69/31/39
f 35/16/27 34/19/27 69/31/39
f 39/37/55 115/64/220 117/46/102
f 42/24/24 19/9/13 113/47/99
f 113/47/99 115/64/212 39/37/100
f 55/26/34 22/14/256 19/9/257
f 19/9/13 42/24/24 55/26/34
f 42/24/24 41/21/24 55/26/34
f 20/9/104 48/24/27 120/8/216
f 48/24/27 47/37/101 120/8/216
f 21/14/105 63/26/180 48/24/27
f 63/26/180 62/29/27 48/24/27
f 62/29/27 49/21/27 48/24/27
f 75/41/94 67/41/258 61/39/106
f 94/48/259 89/55/260 91/49/109
f 96/50/110 91/49/261 92/51/262
f 95/52/114 92/51/262 90/53/263
f 94/48/117 96/50/264 88/50/121
f 96/50/265 95/52/122 87/52/124
f 95/52/122 93/54/266 85/54/267
f 81/55/135 83/49/268 91/49/126
f 83/49/128 84/51/269 92/51/270
f 84/51/131 82/53/175 90/53/132
f 86/48/134 88/50/121 83/49/128
f 88/50/271 87/52/138 84/51/272
f 87/52/273 85/54/274 82/53/275
f 98/56/199 105/63/276 107/57/142
f 100/58/143 107/57/277 108/59/278
f 99/60/147 108/59/278 106/61/279
f 109/63/150 111/57/280 107/57/151
f 111/57/153 112/59/281 108/59/282
f 112/59/156 110/61/207 106/61/157
f 101/56/283 103/58/169 111/57/153
f 103/58/284 104/60/162 112/59/285
f 104/60/286 102/62/287 110/61/288
f 98/56/141 100/58/289 103/58/169
f 100/58/290 99/60/170 104/60/172
f 99/60/170 97/62/291 102/62/292
f 17/10/173 86/48/119 81/55/135
f 82/53/293 21/14/105 22/14/176
f 81/55/135 89/55/294 11/11/295
f 21/14/105 82/53/139 63/26/180
f 82/53/139 85/54/274 63/26/180
f 13/10/181 94/48/117 86/48/119
f 93/54/183 54/40/240 60/40/184
f 54/40/240 93/54/116 55/26/187
f 93/54/116 90/53/296 55/26/187
f 89/55/260 94/48/297 13/10/189
f 97/62/191 68/42/241 74/42/192
f 105/63/276 98/56/199 5/4/201
f 68/42/241 97/62/149 69/31/198
f 97/62/149 106/61/298 69/31/198
f 98/56/199 101/56/283 1/4/299
f 1/4/299 101/56/159 109/63/150
f 23/7/87 110/61/163 77/31/206
f 110/61/163 102/62/287 77/31/206
f 110/61/300 23/7/87 24/7/208
f 109/63/150 105/63/301 7/3/302
f 113/47/99 12/13/303 14/12/211
f 114/44/304 2/6/303 4/5/214
f 117/46/102 18/12/305 16/13/19
f 118/45/217 8/5/9 6/6/218
f 115/64/220 14/12/211 18/12/221
f 113/47/222 120/8/216 16/13/223
f 114/44/306 119/43/83 6/6/307
f 118/45/227 116/1/230 4/5/228
