# Blender 5.0.1
# www.blender.org
o lock_low.001
v -0.102726 0.020155 0.139786
v -0.000081 0.098774 0.139786
v 0.102563 0.020155 0.139786
v -0.064979 -0.106515 0.139786
v -0.000081 -0.106515 0.139786
v 0.064816 -0.106515 0.139786
v -0.000081 0.020155 0.139786
v -0.051404 0.020155 0.139786
v 0.051241 0.020155 0.139786
v -0.051404 0.060223 0.139786
v 0.052140 0.059773 0.139786
v -0.102726 0.020155 -0.139786
v -0.000081 0.098774 -0.139786
v 0.102563 0.020155 -0.139786
v -0.064979 -0.106515 -0.139786
v -0.000081 -0.106515 -0.139786
v 0.064816 -0.106515 -0.139786
v -0.000081 0.020155 -0.139786
v -0.051404 0.020155 -0.139786
v 0.051241 0.020155 -0.139786
v -0.051404 0.060223 -0.139786
v 0.052140 0.059773 -0.139786
vn -0.0000 -0.0000 1.0000
vn -0.0000 -0.0000 -1.0000
vn 0.9584 -0.2856 -0.0000
vn -0.0000 -1.0000 -0.0000
vn -0.6154 0.7882 -0.0000
vn 0.6178 0.7863 -0.0000
vn -0.9584 -0.2856 -0.0000
vn 0.5984 0.8012 -0.0000
vn -0.6006 0.7996 -0.0000
vt 0.184488 0.999023
vt 0.000977 0.383197
vt 0.250488 0.383197
vt 0.999023 0.383197
vt 0.815512 0.999023
vt 0.749512 0.383197
vt 0.072572 0.937593
vt 0.072763 0.937441
vt 0.072797 0.937552
vt 0.246114 0.190587
vt 0.500000 0.383197
vt 0.500000 0.999023
vt 0.749512 0.188401
vt 0.500000 0.000977
vt 0.072627 0.937720
vt 0.072800 0.937631
vt 0.072791 0.937707
vt 0.072718 0.937330
vt 0.072584 0.937456
vt 0.076649 0.936880
vt 0.072877 0.937626
vt 0.072906 0.937518
vt 0.072841 0.937416
vt 0.071726 0.941402
vt 0.069731 0.940203
vt 0.069731 0.934780
vt 0.071527 0.933690
vt 0.075640 0.934818
vt 0.073759 0.941380
vt 0.073848 0.933692
s 1
f 6/1/1 3/2/1 9/3/1
f 1/4/1 4/5/1 8/6/1
f 16/7/2 19/8/2 18/9/2
f 11/10/1 7/11/1 9/3/1
f 9/3/1 5/12/1 6/1/1
f 3/2/1 11/10/1 9/3/1
f 10/13/1 1/4/1 8/6/1
f 10/13/1 7/11/1 2/14/1
f 17/15/2 20/16/2 14/17/2
f 12/18/2 19/8/2 15/19/2
f 3/20/3 17/15/3 14/17/3
f 22/21/2 18/9/2 13/22/2
f 20/16/2 16/7/2 18/9/2
f 14/17/2 20/16/2 22/21/2
f 21/23/2 19/8/2 12/18/2
f 18/9/2 21/23/2 13/22/2
f 15/19/4 5/24/4 4/25/4
f 21/23/5 1/26/5 10/27/5
f 14/17/6 11/28/6 3/20/6
f 16/7/4 6/29/4 5/24/4
f 4/25/7 12/18/7 15/19/7
f 22/21/8 2/30/8 11/28/8
f 13/22/9 10/27/9 2/30/9
f 8/6/1 5/12/1 7/11/1
f 16/7/2 15/19/2 19/8/2
f 11/10/1 2/14/1 7/11/1
f 9/3/1 7/11/1 5/12/1
f 10/13/1 8/6/1 7/11/1
f 3/20/3 6/29/3 17/15/3
f 22/21/2 20/16/2 18/9/2
f 20/16/2 17/15/2 16/7/2
f 18/9/2 19/8/2 21/23/2
f 15/19/4 16/7/4 5/24/4
f 21/23/5 12/18/5 1/26/5
f 14/17/6 22/21/6 11/28/6
f 16/7/4 17/15/4 6/29/4
f 4/25/7 1/26/7 12/18/7
f 22/21/8 13/22/8 2/30/8
f 13/22/9 21/23/9 10/27/9
f 8/6/1 4/5/1 5/12/1
