# Blender 5.1.0
# www.blender.org
o Exclamation_Mark
v -0.074473 1.079593 0.074473
v -0.091879 1.203703 0.218807
v -0.218807 1.203703 0.091879
v -0.079281 1.115944 0.169033
v -0.154599 1.132048 0.154599
v -0.181341 1.203703 0.181341
v -0.169033 1.115944 0.079281
v -0.357335 2.955483 0.484263
v -0.377543 3.079593 0.377543
v -0.484263 2.955483 0.357335
v -0.371334 3.043242 0.461086
v -0.441771 3.027138 0.441771
v -0.461086 3.043242 0.371334
v -0.446797 2.955483 0.446797
v -0.074473 1.079593 -0.074473
v -0.218807 1.203703 -0.091879
v -0.091879 1.203703 -0.218807
v -0.169033 1.115944 -0.079281
v -0.154599 1.132048 -0.154599
v -0.181341 1.203703 -0.181341
v -0.079281 1.115944 -0.169033
v -0.377543 3.079593 -0.377543
v -0.357335 2.955483 -0.484263
v -0.484263 2.955483 -0.357335
v -0.371334 3.043242 -0.461086
v -0.441771 3.027138 -0.441771
v -0.446797 2.955483 -0.446797
v -0.461086 3.043242 -0.371334
v 0.074473 1.079593 0.074473
v 0.218807 1.203703 0.091879
v 0.091879 1.203703 0.218807
v 0.169033 1.115944 0.079281
v 0.154599 1.132048 0.154599
v 0.181341 1.203703 0.181341
v 0.079281 1.115944 0.169033
v 0.377543 3.079593 0.377543
v 0.357335 2.955483 0.484263
v 0.484263 2.955483 0.357335
v 0.371334 3.043242 0.461086
v 0.441771 3.027138 0.441771
v 0.446797 2.955483 0.446797
v 0.461086 3.043242 0.371334
v 0.074473 1.079593 -0.074473
v 0.091879 1.203703 -0.218807
v 0.218807 1.203703 -0.091879
v 0.079281 1.115944 -0.169033
v 0.154599 1.132048 -0.154599
v 0.181341 1.203703 -0.181341
v 0.169033 1.115944 -0.079281
v 0.377543 3.079593 -0.377543
v 0.484263 2.955483 -0.357335
v 0.357335 2.955483 -0.484263
v 0.461086 3.043242 -0.371334
v 0.441771 3.027138 -0.441771
v 0.446797 2.955483 -0.446797
v 0.371334 3.043242 -0.461086
v -0.200000 0.432994 -0.074473
v -0.074473 0.432994 -0.200000
v -0.074473 0.307467 -0.074473
v -0.163234 0.432994 -0.163234
v -0.146946 0.360521 -0.146946
v -0.074473 0.344233 -0.163234
v -0.163234 0.344233 -0.074473
v -0.200000 0.432994 0.074473
v -0.074473 0.307467 0.074473
v -0.074473 0.432994 0.200000
v -0.163234 0.344233 0.074473
v -0.146946 0.360521 0.146946
v -0.074473 0.344233 0.163234
v -0.163234 0.432994 0.163234
v 0.074473 0.432994 -0.200000
v 0.200000 0.432994 -0.074473
v 0.074473 0.307467 -0.074473
v 0.163234 0.432994 -0.163234
v 0.146946 0.360521 -0.146946
v 0.163234 0.344233 -0.074473
v 0.074473 0.344233 -0.163234
v 0.200000 0.432994 0.074473
v 0.074473 0.432994 0.200000
v 0.074473 0.307467 0.074473
v 0.163234 0.432994 0.163234
v 0.146946 0.360521 0.146946
v 0.074473 0.344233 0.163234
v 0.163234 0.344233 0.074473
v -0.200000 0.593741 -0.074473
v -0.074473 0.719268 -0.074473
v -0.074473 0.593741 -0.200000
v -0.163234 0.682502 -0.074473
v -0.146946 0.666214 -0.146946
v -0.074473 0.682502 -0.163234
v -0.163234 0.593741 -0.163234
v -0.200000 0.593741 0.074473
v -0.074473 0.593741 0.200000
v -0.074473 0.719268 0.074473
v -0.163234 0.593741 0.163234
v -0.146946 0.666214 0.146946
v -0.074473 0.682502 0.163234
v -0.163234 0.682502 0.074473
v 0.200000 0.593741 0.074473
v 0.074473 0.719268 0.074473
v 0.074473 0.593741 0.200000
v 0.163234 0.682502 0.074473
v 0.146946 0.666214 0.146946
v 0.074473 0.682502 0.163234
v 0.163234 0.593741 0.163234
v 0.200000 0.593741 -0.074473
v 0.074473 0.593741 -0.200000
v 0.074473 0.719268 -0.074473
v 0.163234 0.593741 -0.163234
v 0.146946 0.666214 -0.146946
v 0.074473 0.682502 -0.163234
v 0.163234 0.682502 -0.074473
vn -0.2970 -0.9075 0.2970
vn -0.3065 -0.4723 0.8264
vn -0.8264 -0.4723 0.3065
vn -0.3440 0.1448 0.9277
vn -0.3536 0.8660 0.3536
vn -0.9277 0.1448 0.3440
vn -0.2970 -0.9075 -0.2970
vn -0.8264 -0.4723 -0.3065
vn -0.3065 -0.4723 -0.8264
vn -0.3536 0.8660 -0.3536
vn -0.3440 0.1448 -0.9277
vn -0.9277 0.1448 -0.3440
vn 0.2970 -0.9075 0.2970
vn 0.8264 -0.4723 0.3065
vn 0.3065 -0.4723 0.8264
vn 0.3536 0.8660 0.3536
vn 0.3440 0.1448 0.9277
vn 0.9277 0.1448 0.3440
vn 0.2970 -0.9075 -0.2970
vn 0.3065 -0.4723 -0.8264
vn 0.8264 -0.4723 -0.3065
vn 0.3536 0.8660 -0.3536
vn 0.9277 0.1448 -0.3440
vn 0.3440 0.1448 -0.9277
vn -0.8881 -0.3251 -0.3251
vn -0.3251 -0.3251 -0.8881
vn -0.3251 -0.8881 -0.3251
vn -0.8881 -0.3251 0.3251
vn -0.3251 -0.8881 0.3251
vn -0.3251 -0.3251 0.8881
vn 0.3251 -0.3251 -0.8881
vn 0.8881 -0.3251 -0.3251
vn 0.3251 -0.8881 -0.3251
vn 0.8881 -0.3251 0.3251
vn 0.3251 -0.3251 0.8881
vn 0.3251 -0.8881 0.3251
vn -0.8881 0.3251 -0.3251
vn -0.3251 0.8881 -0.3251
vn -0.3251 0.3251 -0.8881
vn -0.8881 0.3251 0.3251
vn -0.3251 0.3251 0.8881
vn -0.3251 0.8881 0.3251
vn 0.8881 0.3251 0.3251
vn 0.3251 0.8881 0.3251
vn 0.3251 0.3251 0.8881
vn 0.8881 0.3251 -0.3251
vn 0.3251 0.3251 -0.8881
vn 0.3251 0.8881 -0.3251
vn -0.3588 -0.9334 -0.0000
vn -0.8698 -0.4933 -0.0000
vn -0.3789 -0.1945 0.9048
vn -0.9048 -0.1945 0.3789
vn -0.3990 0.9170 -0.0000
vn -0.9668 0.2553 -0.0000
vn -0.3789 -0.1945 -0.9048
vn -0.9048 -0.1945 -0.3789
vn -0.0000 -0.9334 -0.3588
vn -0.0000 -0.4933 -0.8698
vn -0.0000 0.9170 -0.3990
vn -0.0000 0.2553 -0.9668
vn 0.9048 -0.1945 -0.3789
vn 0.3789 -0.1945 -0.9048
vn 0.3588 -0.9334 -0.0000
vn 0.8698 -0.4933 -0.0000
vn 0.3990 0.9170 -0.0000
vn 0.9668 0.2553 -0.0000
vn 0.3789 -0.1945 0.9048
vn 0.9048 -0.1945 0.3789
vn -0.0000 -0.9334 0.3588
vn -0.0000 -0.4933 0.8698
vn -0.0000 0.9170 0.3990
vn -0.0000 0.2553 0.9668
vn -0.3827 -0.9239 -0.0000
vn -0.9239 -0.3827 -0.0000
vn -0.0000 -0.9239 -0.3827
vn -0.0000 -0.3827 -0.9239
vn 0.3827 -0.9239 -0.0000
vn 0.9239 -0.3827 -0.0000
vn -0.0000 -0.9239 0.3827
vn -0.0000 -0.3827 0.9239
vn -0.3827 -0.0000 -0.9239
vn -0.9239 -0.0000 -0.3827
vn 0.3827 -0.0000 0.9239
vn 0.9239 -0.0000 0.3827
vn -0.3827 -0.0000 0.9239
vn -0.9239 -0.0000 0.3827
vn 0.3827 -0.0000 -0.9239
vn 0.9239 -0.0000 -0.3827
vn -0.0000 0.3827 -0.9239
vn -0.0000 0.9239 -0.3827
vn -0.0000 0.3827 0.9239
vn -0.0000 0.9239 0.3827
vn 0.9239 0.3827 -0.0000
vn 0.3827 0.9239 -0.0000
vn -0.9239 0.3827 -0.0000
vn -0.3827 0.9239 -0.0000
vn -0.0000 -1.0000 -0.0000
vn -0.9887 -0.1498 -0.0000
vn -0.0000 -0.1498 0.9887
vn -0.0000 1.0000 -0.0000
vn -0.0000 -0.1498 -0.9887
vn 0.9887 -0.1498 -0.0000
vn -0.0000 -0.0000 -1.0000
vn -1.0000 -0.0000 -0.0000
vn -0.0000 -0.0000 1.0000
vn 1.0000 -0.0000 -0.0000
vt 0.375000 0.738917
vt 0.375000 0.924551
vt 0.377312 0.985812
vt 0.375000 0.773652
vt 0.390514 0.929392
vt 0.389157 1.000000
vt 0.390514 0.070608
vt 0.375000 0.075449
vt 0.375000 0.028376
vt 0.389157 0.000000
vt 0.609486 0.965953
vt 0.625000 0.967267
vt 0.625000 0.984769
vt 0.608129 1.000000
vt 0.843810 0.718810
vt 0.875000 0.717267
vt 0.875000 0.734769
vt 0.842267 0.750000
vt 0.609486 0.034047
vt 0.608129 0.000000
vt 0.616511 0.000000
vt 0.625000 0.032733
vt 0.375000 0.511083
vt 0.375000 0.325449
vt 0.376541 0.287834
vt 0.390514 0.179392
vt 0.389157 0.250000
vt 0.390514 0.320608
vt 0.843810 0.531190
vt 0.842267 0.500000
vt 0.859769 0.500000
vt 0.875000 0.532733
vt 0.609486 0.284047
vt 0.608129 0.250000
vt 0.620755 0.242384
vt 0.625000 0.282733
vt 0.609486 0.215953
vt 0.625000 0.217267
vt 0.375000 0.697265
vt 0.375000 0.674551
vt 0.376541 0.750000
vt 0.375000 0.825449
vt 0.390514 0.679392
vt 0.389157 0.750000
vt 0.390514 0.820608
vt 0.656190 0.718810
vt 0.641366 0.766366
vt 0.627247 0.744923
vt 0.625000 0.717267
vt 0.609486 0.784047
vt 0.608129 0.750000
vt 0.609486 0.715953
vt 0.375000 0.552735
vt 0.375000 0.424551
vt 0.376541 0.500000
vt 0.375000 0.575449
vt 0.390514 0.429392
vt 0.389157 0.500000
vt 0.390514 0.570608
vt 0.656190 0.531190
vt 0.625000 0.532733
vt 0.622170 0.500000
vt 0.641366 0.483634
vt 0.609486 0.534047
vt 0.608129 0.500000
vt 0.609486 0.465953
vt 0.375000 0.171546
vt 0.375000 0.250000
vt 0.375000 0.266579
vt 0.375000 0.328454
vt 0.203454 0.578454
vt 0.125000 0.578454
vt 0.125000 0.533159
vt 0.203454 0.500000
vt 0.375000 0.078454
vt 0.375000 0.033159
vt 0.375000 0.000000
vt 0.203454 0.671546
vt 0.203454 0.750000
vt 0.158159 0.750000
vt 0.125000 0.671546
vt 0.375000 0.921546
vt 0.375000 1.000000
vt 0.375000 0.921546
vt 0.375000 0.421546
vt 0.375000 0.500000
vt 0.363947 0.511053
vt 0.335773 0.460773
vt 0.375000 0.578454
vt 0.296546 0.578454
vt 0.375000 0.671546
vt 0.375000 0.750000
vt 0.375000 0.671546
vt 0.375000 0.828454
vt 0.335773 0.789227
vt 0.296546 0.671546
vt 0.375000 0.171546
vt 0.375000 0.328454
vt 0.375000 0.078454
vt 0.375000 0.000000
vt 0.375000 0.078454
vt 0.375000 0.921546
vt 0.375000 0.933683
vt 0.375000 1.000000
vt 0.375000 0.764637
vt 0.375000 0.671546
vt 0.375000 0.671546
vt 0.375000 0.828454
vt 0.375000 0.578454
vt 0.375000 0.578454
vt 0.375000 0.421546
s 0
f 1/1/1 4/2/1 5/3/1 7/4/1
f 2/5/2 6/6/2 5/3/2 4/2/2
f 3/7/3 7/8/3 5/9/3 6/10/3
f 8/11/4 11/12/4 12/13/4 14/14/4
f 9/15/5 13/16/5 12/17/5 11/18/5
f 10/19/6 14/20/6 12/21/6 13/22/6
f 15/23/7 18/24/7 19/25/7 21/24/7
f 16/26/8 20/27/8 19/25/8 18/24/8
f 17/28/9 21/24/9 19/25/9 20/27/9
f 22/29/10 25/30/10 26/31/10 28/32/10
f 23/33/11 27/34/11 26/35/11 25/36/11
f 24/37/12 28/38/12 26/35/12 27/34/12
f 29/39/13 32/40/13 33/41/13 35/42/13
f 30/43/14 34/44/14 33/41/14 32/40/14
f 31/45/15 35/42/15 33/41/15 34/44/15
f 36/46/16 39/47/16 40/48/16 42/49/16
f 37/50/17 41/51/17 40/48/17 39/47/17
f 38/52/18 42/49/18 40/48/18 41/51/18
f 43/53/19 46/54/19 47/55/19 49/56/19
f 44/57/20 48/58/20 47/55/20 46/54/20
f 45/59/21 49/56/21 47/55/21 48/58/21
f 50/60/22 53/61/22 54/62/22 56/63/22
f 51/64/23 55/65/23 54/62/23 53/61/23
f 52/66/24 56/63/24 54/62/24 55/65/24
f 57/67/25 60/68/25 61/69/25 63/67/25
f 58/70/26 62/70/26 61/69/26 60/68/26
f 59/71/27 63/72/27 61/73/27 62/74/27
f 64/75/28 67/75/28 68/76/28 70/77/28
f 65/78/29 69/79/29 68/80/29 67/81/29
f 66/82/30 70/83/30 68/83/30 69/84/30
f 71/85/31 74/86/31 75/87/31 77/88/31
f 72/89/32 76/89/32 75/87/32 74/86/32
f 73/90/33 77/88/33 75/87/33 76/89/33
f 78/91/34 81/92/34 82/92/34 84/93/34
f 79/94/35 83/95/35 82/92/35 81/92/35
f 80/96/36 84/93/36 82/92/36 83/95/36
f 85/97/37 88/70/37 89/68/37 91/68/37
f 86/23/38 90/70/38 89/68/38 88/70/38
f 87/98/39 91/68/39 89/68/39 90/70/39
f 92/99/40 95/100/40 96/100/40 98/101/40
f 93/102/41 97/84/41 96/103/41 95/104/41
f 94/1/42 98/105/42 96/103/42 97/84/42
f 99/106/43 102/107/43 103/92/43 105/92/43
f 100/39/44 104/94/44 103/92/44 102/107/44
f 101/108/45 105/92/45 103/92/45 104/94/45
f 106/109/46 109/86/46 110/86/46 112/110/46
f 107/111/47 111/85/47 110/86/47 109/86/47
f 108/53/48 112/110/48 110/86/48 111/85/48
f 15/23/49 1/1/49 7/4/49 18/24/49
f 18/24/50 7/8/50 3/7/50 16/26/50
f 2/5/51 8/11/51 14/14/51 6/6/51
f 6/10/52 14/20/52 10/19/52 3/7/52
f 9/15/53 22/29/53 28/32/53 13/16/53
f 13/22/54 28/38/54 24/37/54 10/19/54
f 23/33/55 17/28/55 20/27/55 27/34/55
f 27/34/56 20/27/56 16/26/56 24/37/56
f 43/53/57 15/23/57 21/24/57 46/54/57
f 46/54/58 21/24/58 17/28/58 44/57/58
f 22/29/59 50/60/59 56/63/59 25/30/59
f 25/36/60 56/63/60 52/66/60 23/33/60
f 51/64/61 45/59/61 48/58/61 55/65/61
f 55/65/62 48/58/62 44/57/62 52/66/62
f 29/39/63 43/53/63 49/56/63 32/40/63
f 32/40/64 49/56/64 45/59/64 30/43/64
f 50/60/65 36/46/65 42/49/65 53/61/65
f 53/61/66 42/49/66 38/52/66 51/64/66
f 37/50/67 31/45/67 34/44/67 41/51/67
f 41/51/68 34/44/68 30/43/68 38/52/68
f 1/1/69 29/39/69 35/42/69 4/2/69
f 4/2/70 35/42/70 31/45/70 2/5/70
f 36/46/71 9/15/71 11/18/71 39/47/71
f 39/47/72 11/12/72 8/11/72 37/50/72
f 59/71/73 65/78/73 67/81/73 63/72/73
f 63/67/74 67/75/74 64/75/74 57/67/74
f 73/90/75 59/71/75 62/74/75 77/88/75
f 77/88/76 62/70/76 58/70/76 71/85/76
f 80/96/77 73/90/77 76/89/77 84/93/77
f 84/93/78 76/89/78 72/89/78 78/91/78
f 65/78/79 80/96/79 83/95/79 69/79/79
f 69/84/80 83/95/80 79/94/80 66/82/80
f 87/98/81 58/70/81 60/68/81 91/68/81
f 91/68/82 60/68/82 57/67/82 85/97/82
f 101/108/83 79/94/83 81/92/83 105/92/83
f 105/92/84 81/92/84 78/91/84 99/106/84
f 66/82/85 93/102/85 95/104/85 70/83/85
f 70/77/86 95/100/86 92/99/86 64/75/86
f 71/85/87 107/111/87 109/86/87 74/86/87
f 74/86/88 109/86/88 106/109/88 72/89/88
f 107/111/89 87/98/89 90/70/89 111/85/89
f 111/85/90 90/70/90 86/23/90 108/53/90
f 93/102/91 101/108/91 104/94/91 97/84/91
f 97/84/92 104/94/92 100/39/92 94/1/92
f 99/106/93 106/109/93 112/110/93 102/107/93
f 102/107/94 112/110/94 108/53/94 100/39/94
f 85/97/95 92/99/95 98/101/95 88/70/95
f 88/70/96 98/105/96 94/1/96 86/23/96
f 15/23/97 43/53/97 29/39/97 1/1/97
f 3/7/98 10/19/98 24/37/98 16/26/98
f 31/45/99 37/50/99 8/11/99 2/5/99
f 50/60/100 22/29/100 9/15/100 36/46/100
f 17/28/101 23/33/101 52/66/101 44/57/101
f 45/59/102 51/64/102 38/52/102 30/43/102
f 59/71/97 73/90/97 80/96/97 65/78/97
f 87/98/103 107/111/103 71/85/103 58/70/103
f 92/99/104 85/97/104 57/67/104 64/75/104
f 101/108/105 93/102/105 66/82/105 79/94/105
f 106/109/106 99/106/106 78/91/106 72/89/106
f 108/53/100 86/23/100 94/1/100 100/39/100
