# Blender 5.0.1
# www.blender.org
o sculpture_triangle
v -0.100000 0.000000 0.100000
v -0.010279 0.100000 0.010279
v -0.100000 0.000000 -0.100000
v -0.010279 0.100000 -0.010279
v 0.100000 0.000000 0.100000
v 0.010279 0.100000 0.010279
v 0.100000 0.000000 -0.100000
v 0.010279 0.100000 -0.010279
v -0.100000 0.100000 0.100000
v -0.100000 0.100000 -0.100000
v 0.100000 0.100000 -0.100000
v 0.100000 0.100000 0.100000
v -0.013682 0.171345 0.028188
v -0.013682 0.171345 -0.028188
v 0.013682 0.171345 -0.028188
v 0.013682 0.171345 0.028188
v -0.235828 0.480601 0.011632
v -0.188055 0.489096 -0.021392
v 0.187912 0.453184 0.059393
v 0.177080 0.492552 0.075686
v -0.182565 0.491892 -0.012730
v 0.174973 0.450468 0.057442
v -0.230338 0.483398 0.020294
v 0.163066 0.488933 0.075204
v 0.001344 0.171345 0.028188
v -0.001344 0.171345 0.028188
v -0.001344 0.171345 -0.028188
v 0.001344 0.171345 -0.028188
v -0.004989 0.169050 0.010279
v 0.004989 0.169050 -0.010279
v 0.004989 0.169050 0.010279
v -0.004989 0.169050 -0.010279
v -0.231232 0.474203 0.011975
v -0.184448 0.482522 -0.021532
v -0.178816 0.485261 -0.013050
v -0.225600 0.476942 0.020457
v 0.169442 0.477536 0.073466
v 0.179766 0.440009 0.055299
v 0.166856 0.437419 0.053439
v 0.155505 0.474086 0.073006
vn -1.0000 -0.0000 -0.0000
vn -0.0000 -0.0000 -1.0000
vn 1.0000 -0.0000 -0.0000
vn -0.0000 -0.0000 1.0000
vn -0.0000 -1.0000 -0.0000
vn -0.0000 1.0000 -0.0000
vn -0.5278 -0.2724 -0.8045
vn 0.9971 0.0764 -0.0000
vn -0.9971 0.0764 -0.0000
vn 0.3075 -0.2904 0.9061
vn -0.4020 0.3311 -0.8537
vn 0.4816 0.3735 0.7928
vn 0.0949 0.2414 -0.9658
vn -0.2659 0.9539 -0.1394
vn 0.7004 0.3970 -0.5932
vn 0.0554 0.3948 -0.9171
vn 0.0041 -0.1483 0.9889
vn -0.6778 -0.4560 0.5768
vn 0.2553 -0.9669 -0.0000
vn -0.0000 -0.9919 0.1271
vn -0.2553 -0.9669 -0.0000
vn -0.0000 -0.9919 -0.1271
vn 0.2155 0.4235 -0.8799
vn -0.6703 -0.4499 0.5902
vn 0.7093 0.4016 -0.5793
vn 0.4925 0.3812 0.7824
vn -0.8767 -0.4811 -0.0000
vn 0.0043 -0.1484 0.9889
vn 0.0901 0.2444 -0.9655
vn -0.3407 0.3051 -0.8893
vn 0.3736 -0.3189 0.8710
vn 0.0219 -0.9770 -0.2120
vn 0.1756 -0.1361 -0.9750
vn -0.1326 0.3921 0.9103
vn -0.4774 -0.3852 -0.7897
vn 0.1755 -0.3894 0.9042
vn -0.8491 0.5282 -0.0000
vn 0.5309 0.2613 0.8062
vn 0.0911 0.2398 -0.9665
vn -0.0000 0.0482 -0.9988
vn -0.0718 0.3997 -0.9138
vn -0.0000 -0.1464 0.9892
vn -0.6588 -0.4685 0.5886
vn -0.0471 0.9817 0.1844
vn -0.0000 0.0253 0.9997
vn 0.6888 0.4180 -0.5923
vn 0.8705 0.4921 -0.0000
vn -0.4884 -0.3925 -0.7794
vn 0.0041 -0.1485 0.9889
vn -0.0000 0.2933 -0.9560
vn -0.2161 0.4067 -0.8876
vn 0.8506 -0.5258 -0.0000
vn -0.2301 -0.5126 0.8272
vn 0.2084 0.1661 -0.9638
vn 0.2083 0.1642 -0.9642
vn -0.1368 -0.0754 0.9877
vn -0.1368 -0.0766 0.9876
vt 0.992625 0.381958
vt 0.840062 0.687084
vt 0.840062 0.381958
vt 0.844113 0.820873
vt 0.996676 0.515747
vt 0.996676 0.820873
vt 0.994738 0.070780
vt 0.842174 0.375907
vt 0.842174 0.070780
vt 0.839100 0.996024
vt 0.991663 0.690897
vt 0.991663 0.996024
vt 0.842415 0.995979
vt 0.995451 0.842943
vt 0.995451 0.995979
vt 0.986014 0.350112
vt 0.849121 0.181876
vt 0.985991 0.318723
vt 0.849476 0.486421
vt 0.986369 0.654657
vt 0.849498 0.517810
vt 0.986378 0.685124
vt 0.849485 0.516889
vt 0.986355 0.653736
vt 0.848264 0.823548
vt 0.985157 0.991784
vt 0.848287 0.854937
vt 0.587092 0.265018
vt 0.609782 0.436109
vt 0.587788 0.442430
vt 0.492156 0.487187
vt 0.343323 0.988559
vt 0.343323 0.487187
vt 0.345647 0.515936
vt 0.494480 0.014564
vt 0.494480 0.515936
vt 0.539790 0.568969
vt 0.575282 0.472631
vt 0.575282 0.606768
vt 0.522033 0.810247
vt 0.652091 0.072165
vt 0.590534 0.886770
vt 0.611585 0.434430
vt 0.634447 0.263973
vt 0.634447 0.443064
vt 0.585288 0.609930
vt 0.577086 0.437912
vt 0.585288 0.437912
vt 0.545971 0.718896
vt 0.575282 0.739293
vt 0.546110 0.767783
vt 0.585288 0.436109
vt 0.552854 0.257019
vt 0.585288 0.257018
vt 0.563589 0.954531
vt 0.589201 0.108543
vt 0.588723 0.954903
vt 0.741885 2.467604
vt 0.674835 2.447200
vt 0.741884 2.447200
vt 0.584266 0.907920
vt 0.610535 0.104213
vt 0.610207 0.930276
vt 0.520291 0.723008
vt 0.544167 0.693533
vt 0.544167 0.725967
vt 0.339192 0.992124
vt 0.455515 0.465822
vt 0.495877 0.992124
vt 0.496298 0.014123
vt 0.372537 0.530110
vt 0.342073 0.011365
vt 0.733680 2.417557
vt 0.674925 2.403931
vt 0.761041 2.403931
vt 0.761205 2.423031
vt 0.761229 2.427197
vt 0.702285 2.432672
vt 0.761041 2.446298
vt 0.674925 2.446298
vt 0.674760 2.427198
vt 0.674736 2.423032
vt 0.539357 0.117704
vt 0.636378 0.958949
vt 0.539357 0.985240
vt 0.557796 0.040202
vt 0.582701 0.926619
vt 0.557796 0.930026
vt 0.520902 0.727771
vt 0.544070 0.759943
vt 0.521187 0.760203
vt 0.512801 0.052531
vt 0.642708 0.908021
vt 0.512801 0.956373
vt 0.645513 0.058857
vt 0.514559 0.903235
vt 0.511129 0.056876
vt 0.575282 0.637757
vt 0.542081 0.660422
vt 0.542101 0.608572
vt 0.557575 0.106015
vt 0.582857 0.862943
vt 0.559959 0.884869
vt 0.693204 2.487033
vt 0.674736 2.469278
vt 0.510000 0.125337
vt 0.639936 0.869850
vt 0.574788 0.948843
vt 0.524503 0.872783
vt 0.622923 0.055252
vt 0.620862 0.972421
vt 0.563212 0.948971
vt 0.563212 0.044475
vt 0.582238 0.074800
vt 0.587458 0.040968
vt 0.606017 0.007270
vt 0.606017 0.987718
vt 0.992625 0.687084
vt 0.844113 0.515747
vt 0.994738 0.375907
vt 0.839100 0.690897
vt 0.842415 0.842943
vt 0.849121 0.486978
vt 0.986369 0.349555
vt 0.849485 0.821990
vt 0.985157 0.686683
vt 0.609782 0.257018
vt 0.492156 0.988559
vt 0.345647 0.014564
vt 0.540863 0.437913
vt 0.522033 0.038274
vt 0.612246 0.257018
vt 0.577086 0.609930
vt 0.575282 0.690838
vt 0.552854 0.436109
vt 0.563589 0.094081
vt 0.584266 0.090980
vt 0.519879 0.690838
vt 0.379456 0.465844
vt 0.447401 0.531428
vt 0.702289 2.417557
vt 0.733676 2.432672
vt 0.629853 0.018608
vt 0.581489 0.022772
vt 0.544167 0.727771
vt 0.647109 0.047575
vt 0.645513 0.948675
vt 0.575282 0.689034
vt 0.582857 0.090980
vt 0.758867 2.484849
vt 0.639936 0.090980
vt 0.524502 0.025872
vt 0.621495 0.092642
vt 0.582462 0.938835
vt 0.582544 0.976764
vt 0.556124 0.059872
s 0
f 9/1/1 3/2/1 1/3/1
f 10/4/2 7/5/2 3/6/2
f 11/7/3 5/8/3 7/9/3
f 12/10/4 1/11/4 5/12/4
f 7/13/5 1/14/5 3/15/5
f 4/16/6 9/17/6 2/18/6
f 8/19/6 10/20/6 4/21/6
f 6/22/6 11/23/6 8/24/6
f 2/25/6 12/26/6 6/27/6
f 33/28/7 18/29/7 34/30/7
f 8/31/8 31/32/8 6/33/8
f 2/34/9 32/35/9 4/36/9
f 37/37/10 19/38/10 20/39/10
f 39/40/11 25/41/11 40/42/11
f 36/43/12 21/44/12 23/45/12
f 26/46/6 28/47/6 27/48/6
f 38/49/13 22/50/13 19/51/13
f 21/52/14 17/53/14 23/54/14
f 35/55/15 14/56/15 34/57/15
f 22/58/16 20/59/16 19/60/16
f 40/61/17 16/62/17 37/63/17
f 33/64/18 23/65/18 17/66/18
f 6/67/4 29/68/4 2/69/4
f 4/70/2 30/71/2 8/72/2
f 31/73/19 15/74/19 16/75/19
f 31/73/20 25/76/20 26/77/20
f 32/78/21 13/79/21 14/80/21
f 32/78/22 27/81/22 28/82/22
f 21/83/23 20/84/23 19/85/23
f 13/86/24 36/87/24 33/88/24
f 21/89/25 34/90/25 18/91/25
f 26/92/26 35/93/26 36/94/26
f 13/95/27 34/96/27 14/97/27
f 24/98/28 37/99/28 20/100/28
f 15/101/29 39/102/29 38/103/29
f 22/58/30 40/104/30 24/105/30
f 16/106/31 38/107/31 37/108/31
f 35/109/32 40/110/32 36/111/32
f 21/112/33 19/113/33 22/114/33
f 24/115/34 20/116/34 23/117/34
f 9/1/1 10/118/1 3/2/1
f 10/4/2 11/119/2 7/5/2
f 11/7/3 12/120/3 5/8/3
f 12/10/4 9/121/4 1/11/4
f 7/13/5 5/122/5 1/14/5
f 4/16/6 10/123/6 9/17/6
f 8/19/6 11/124/6 10/20/6
f 6/22/6 12/125/6 11/23/6
f 2/25/6 9/126/6 12/26/6
f 33/28/35 17/127/35 18/29/35
f 8/31/8 30/128/8 31/32/8
f 2/34/9 29/129/9 32/35/9
f 37/37/36 38/130/36 19/38/36
f 39/40/37 28/131/37 25/41/37
f 36/43/38 35/132/38 21/44/38
f 26/46/6 25/133/6 28/47/6
f 38/49/39 39/134/39 22/50/39
f 21/52/14 18/135/14 17/53/14
f 35/55/40 27/136/40 14/56/40
f 22/58/41 24/105/41 20/59/41
f 40/61/42 25/137/42 16/62/42
f 33/64/43 36/138/43 23/65/43
f 6/67/4 31/139/4 29/68/4
f 4/70/2 32/140/2 30/71/2
f 31/73/19 30/141/19 15/74/19
f 13/79/20 29/142/20 26/77/20
f 29/142/20 31/73/20 26/77/20
f 31/73/20 16/75/20 25/76/20
f 32/78/21 29/142/21 13/79/21
f 15/74/22 30/141/22 28/82/22
f 30/141/22 32/78/22 28/82/22
f 32/78/22 14/80/22 27/81/22
f 21/83/44 23/143/44 20/84/44
f 13/86/45 26/144/45 36/87/45
f 21/89/46 35/145/46 34/90/46
f 26/92/47 27/146/47 35/93/47
f 13/95/48 33/147/48 34/96/48
f 24/98/49 40/148/49 37/99/49
f 15/101/50 28/149/50 39/102/50
f 22/58/51 39/150/51 40/104/51
f 16/106/52 15/151/52 38/107/52
f 35/109/53 39/152/53 40/110/53
f 22/114/54 39/153/54 35/154/54
f 35/154/55 21/112/55 22/114/55
f 23/117/56 36/155/56 24/115/56
f 36/155/57 40/156/57 24/115/57
