# Blender 5.0.1
# www.blender.org
o Cube
v -0.312500 -0.025000 0.500000
v -0.160260 0.021466 0.344881
v -0.312500 -0.025000 -0.500000
v -0.160260 0.021466 0.157853
v 0.312500 -0.025000 0.500000
v 0.021971 0.021466 0.344881
v 0.312500 -0.025000 -0.500000
v 0.021971 0.021466 0.157853
v -0.312500 0.021466 0.500000
v -0.312500 0.021466 -0.500000
v 0.312500 0.021466 -0.500000
v 0.312500 0.021466 0.500000
v -0.160260 0.754264 -0.242958
v -0.160260 0.754264 -0.429985
v 0.021971 0.754264 -0.429985
v 0.021971 0.754264 -0.242958
v -0.160260 1.207335 -0.242958
v -0.160260 1.207335 -0.429985
v 0.021971 1.035234 -0.242958
v 0.353724 0.749174 -0.242958
v 0.353724 0.749174 -0.429985
v 0.021971 1.035234 -0.429985
v 0.353724 1.207335 -0.429985
v 0.353724 1.207335 -0.242958
v 0.353724 1.035234 -0.242958
v 0.353724 1.035234 -0.429985
v 0.212670 1.035234 -0.429985
v 0.212670 1.035234 -0.242958
v 0.212670 0.882281 -0.242958
v 0.212670 0.882281 -0.429985
v 0.312500 0.021466 -0.402895
v -0.312500 0.021466 -0.402895
v 0.000000 0.021466 -0.500000
v 0.156250 0.021466 -0.500000
v 0.051174 0.021466 -0.330623
v 0.051174 0.021466 -0.345875
v 0.207424 0.021466 -0.345875
v 0.207424 0.021466 -0.330623
v 0.207424 0.094452 -0.203251
v 0.207424 0.094452 -0.345875
v 0.051174 0.094452 -0.345875
v 0.051174 0.094452 -0.203251
v 0.207424 0.492297 -0.211908
v 0.207424 0.573461 -0.338332
v 0.051174 0.573461 -0.338332
v 0.051174 0.492297 -0.211908
v 0.180060 0.694843 0.003775
v 0.180060 0.776007 -0.113502
v 0.023810 0.776007 -0.113502
v 0.023810 0.694843 0.003775
v 0.180060 1.025585 0.002839
v 0.180060 1.026089 -0.114629
v 0.023810 1.026089 -0.114629
v 0.023810 1.025585 0.002839
v 0.180060 0.810998 0.003446
v 0.023810 0.810998 0.003446
v 0.023810 0.863835 -0.113898
v 0.180060 0.863835 -0.113898
v 0.180060 1.024015 -0.574809
v 0.023810 1.024015 -0.574809
v 0.023810 0.861761 -0.574077
v 0.180060 0.861761 -0.574077
v 0.023810 0.862517 -0.406350
v 0.180060 0.862517 -0.406350
v 0.023810 0.669243 -0.572290
v 0.180060 0.669243 -0.572290
v 0.180060 0.792396 -0.406035
v 0.023810 0.792396 -0.406035
v 0.023810 0.669293 -0.547274
v 0.180060 0.669293 -0.547274
v 0.180060 0.793364 -0.191704
v 0.023810 0.793364 -0.191704
vn -1.0000 -0.0000 -0.0000
vn -0.0000 -0.0000 -1.0000
vn 1.0000 -0.0000 -0.0000
vn -0.0000 -0.0000 1.0000
vn -0.0000 -1.0000 -0.0000
vn -0.0000 1.0000 -0.0000
vn -0.0000 0.6257 0.7800
vn -0.0000 -0.6257 -0.7800
vn -0.6863 -0.7273 -0.0000
vn -0.0000 -0.8677 0.4972
vn -0.0000 -0.7290 0.6846
vn -0.0000 0.0218 0.9998
vn -0.0000 0.0157 -0.9999
vn -0.0000 0.0028 1.0000
vn -0.0000 0.7430 -0.6693
vn -0.9956 -0.0780 -0.0520
vn 0.9956 0.0780 0.0520
vn -0.0000 1.0000 0.0043
vn -0.0000 -0.0045 -1.0000
vn -0.0000 -1.0000 0.0045
vn -0.0000 1.0000 -0.0045
vn -0.0000 -0.0093 -1.0000
vn -0.0000 0.0045 1.0000
vn -0.0000 -0.9442 0.3295
vn -0.0000 -1.0000 0.0020
vt 0.521989 0.182093
vt 0.521989 0.128209
vt 0.547773 0.128209
vt 0.575985 0.301617
vt 0.575985 0.214913
vt 0.601769 0.128209
vt 0.574771 0.182093
vt 0.574771 0.683113
vt 0.548987 0.683113
vt 0.598969 0.693949
vt 0.617822 0.440364
vt 0.617822 0.693949
vt 0.566976 0.116754
vt 0.622748 0.027519
vt 0.622748 0.116754
vt 0.591158 0.772297
vt 0.511903 0.735541
vt 0.660001 0.735541
vt 0.028604 0.053312
vt 0.130712 0.134493
vt 0.133564 0.789721
vt 0.031457 0.708539
vt 0.020976 0.632061
vt 0.146504 0.628730
vt 0.154574 0.932820
vt 0.029046 0.936151
vt 0.018458 0.031087
vt 0.143986 0.027755
vt 0.014510 0.247609
vt 0.157439 0.247609
vt 0.157439 0.984436
vt 0.014510 0.984436
vt 0.017557 0.280476
vt 0.154286 0.280476
vt 0.154286 0.985340
vt 0.017557 0.985340
vt 0.016626 0.043986
vt 0.066148 0.043986
vt 0.066148 0.084575
vt 0.066148 0.139449
vt 0.146999 0.139449
vt 0.146999 0.191887
vt 0.016626 0.191887
vt 0.010993 0.282464
vt 0.147494 0.282464
vt 0.147494 0.424012
vt 0.010993 0.424012
vt 0.142811 0.043965
vt 0.142811 0.096403
vt 0.061961 0.096403
vt 0.061961 0.151278
vt 0.061961 0.191867
vt 0.012438 0.191867
vt 0.012438 0.043965
vt 0.028104 0.225406
vt 0.028104 0.106084
vt 0.125687 0.106084
vt 0.125687 0.225406
vt 0.140319 0.983624
vt 0.038212 0.902443
vt 0.105973 0.151278
vt 0.144276 0.191867
vt 0.148463 0.043986
vt 0.110161 0.084575
vt 0.016227 0.537288
vt 0.152185 0.537288
vt 0.152185 0.662394
vt 0.016227 0.662394
vt 0.147493 0.564788
vt 0.010993 0.564788
vt 0.010993 0.425608
vt 0.147493 0.425608
vt 0.016227 0.329340
vt 0.152185 0.329340
vt 0.049553 0.367449
vt 0.049553 0.258497
vt 0.151917 0.258497
vt 0.151917 0.367449
vt 0.598078 0.932363
vt 0.547977 0.816615
vt 0.591158 0.816615
vt 0.598078 0.935977
vt 0.622976 0.972498
vt 0.585952 0.972498
vt 0.511903 0.949488
vt 0.635102 0.935977
vt 0.635102 0.932363
vt 0.660001 0.949488
vt 0.119083 0.937791
vt 0.045422 0.937499
vt 0.050299 0.690120
vt 0.115427 0.732298
vt 0.015497 0.017151
vt 0.149227 0.017151
vt 0.149227 0.079616
vt 0.015497 0.079616
vt 0.121467 0.990413
vt 0.111577 0.990167
vt 0.030159 0.940785
vt 0.122644 0.943085
vt 0.053150 0.975225
vt 0.045273 0.975194
vt 0.158801 0.563869
vt 0.021771 0.576542
vt 0.021771 0.314840
vt 0.158801 0.302167
vt 0.014399 0.379166
vt 0.152449 0.379166
vt 0.152449 0.730753
vt 0.014399 0.730753
vt 0.149227 0.489636
vt 0.015497 0.489636
vt 0.042187 0.682940
vt 0.125476 0.632348
vt 0.015497 0.590922
vt 0.149227 0.590922
vt 0.149227 0.774581
vt 0.015497 0.774581
vt 0.149038 0.982082
vt 0.023023 0.970687
vt 0.023023 0.724636
vt 0.149038 0.736031
vt 0.030987 0.496936
vt 0.122474 0.483193
vt 0.039267 0.575803
vt 0.112452 0.584168
vt 0.023023 0.627740
vt 0.149552 0.627740
vt 0.149552 0.722865
vt 0.023023 0.722865
vt 0.082650 0.370679
vt 0.148465 0.369163
vt 0.152767 0.555826
vt 0.086951 0.557343
vt 0.085384 0.489307
vt 0.059909 0.323677
vt 0.146948 0.321525
vt 0.108891 0.328190
vt 0.042581 0.332740
vt 0.145938 0.272989
vt 0.146696 0.320644
vt 0.135413 0.799641
vt 0.135413 0.952384
vt 0.049556 0.952384
vt 0.049556 0.799641
vt 0.015497 0.491508
vt 0.149227 0.491508
vt 0.145943 0.837024
vt 0.027866 0.837024
vt 0.027866 0.714408
vt 0.145943 0.714408
vt 0.077192 0.155993
vt 0.075510 0.087960
vt 0.141323 0.086333
vt 0.150319 0.279117
vt 0.015932 0.279117
vt 0.015932 0.027581
vt 0.150319 0.027581
vt 0.023023 0.255088
vt 0.149552 0.255088
vt 0.010649 0.376001
vt 0.146129 0.376001
vt 0.146129 0.561844
vt 0.010648 0.561844
vt 0.145943 0.982514
vt 0.027866 0.982514
vt 0.102009 0.171474
vt 0.102009 0.309228
vt 0.040187 0.309228
vt 0.040187 0.171474
vt 0.008850 0.558769
vt 0.056940 0.489963
vt 0.048750 0.156696
vt -0.002570 0.090264
vt 0.017006 0.356162
vt 0.140342 0.356162
vt 0.140342 0.653428
vt 0.017006 0.653428
vt 0.050900 0.243632
vt -0.002345 0.100411
vt 0.008590 0.548623
vt 0.054938 0.403024
vt 0.140342 0.673174
vt 0.017006 0.673174
vt 0.017474 0.402550
vt 0.017474 0.048896
vt 0.146161 0.048896
vt 0.146161 0.402550
vt 0.547773 0.683113
vt 0.521989 0.683113
vt 0.601769 0.475024
vt 0.575985 0.475024
vt 0.575985 0.128209
vt 0.548987 0.128209
vt 0.574771 0.128209
vt 0.598969 0.440364
vt 0.566976 0.027519
vt 0.547977 0.772297
vt 0.511903 0.972498
vt 0.660001 0.972498
s 0
f 32/1/1 10/2/1 3/3/1
f 33/4/2 34/5/2 7/6/2
f 31/7/3 12/8/3 5/9/3
f 12/10/4 1/11/4 5/12/4
f 7/13/5 1/14/5 3/15/5
f 6/16/6 9/17/6 12/18/6
f 6/19/3 8/20/3 15/21/3 16/22/3
f 14/23/1 13/24/1 17/25/1 18/26/1
f 4/27/1 2/28/1 13/24/1 14/23/1
f 2/29/7 6/30/7 16/31/7 13/32/7
f 8/33/8 4/34/8 14/35/8 15/36/8
f 23/37/2 26/38/2 27/39/2 22/40/2 15/41/2 14/42/2 18/43/2
f 29/44/9 30/45/9 21/46/9 20/47/9
f 13/48/4 16/49/4 19/50/4 28/51/4 25/52/4 24/53/4 17/54/4
f 28/55/1 27/56/1 30/57/1 29/58/1
f 16/22/3 15/21/3 22/59/3 19/60/3
f 25/52/4 28/51/4 29/61/4 20/62/4
f 27/39/2 26/38/2 21/63/2 30/64/2
f 25/65/3 26/66/3 23/67/3 24/68/3
f 19/69/5 22/70/5 27/71/5 28/72/5
f 26/66/3 25/65/3 20/73/3 21/74/3
f 35/75/10 38/76/10 39/77/10 42/78/10
f 35/79/6 4/80/6 8/81/6
f 36/82/6 34/83/6 33/84/6
f 32/85/6 36/82/6 33/84/6
f 37/86/6 38/87/6 31/88/6
f 39/89/3 40/90/3 44/91/3 43/92/3
f 37/93/2 36/94/2 41/95/2 40/96/2
f 36/97/1 35/98/1 42/99/1 41/100/1
f 38/101/3 37/102/3 40/90/3 39/89/3
f 46/103/11 43/104/11 47/105/11 50/106/11
f 42/107/12 39/108/12 43/109/12 46/110/12
f 40/96/13 41/95/13 45/111/13 44/112/13
f 41/100/1 42/99/1 46/113/1 45/114/1
f 56/115/14 55/116/14 51/117/14 54/118/14
f 44/119/15 45/120/15 49/121/15 48/122/15
f 45/114/16 46/113/16 50/123/16 49/124/16
f 43/92/17 44/91/17 48/125/17 47/126/17
f 52/127/18 53/128/18 54/129/18 51/130/18
f 57/131/1 53/132/1 60/133/1 61/134/1 63/135/1
f 57/131/1 56/136/1 54/137/1 53/132/1
f 55/138/3 58/139/3 52/140/3 51/141/3
f 47/126/3 48/125/3 58/139/3 55/138/3
f 49/124/1 50/123/1 56/136/1 57/131/1
f 48/142/19 49/143/19 57/144/19 58/145/19
f 50/146/14 47/147/14 55/116/14 56/115/14
f 62/148/19 61/149/19 60/150/19 59/151/19
f 52/140/3 58/139/3 64/152/3 62/153/3 59/154/3
f 58/155/20 57/156/20 63/157/20 64/158/20
f 53/128/21 52/127/21 59/159/21 60/160/21
f 67/161/21 68/162/21 72/163/21 71/164/21
f 61/149/22 62/148/22 66/165/22 65/166/22
f 64/167/23 63/168/23 68/169/23 67/170/23
f 63/135/1 61/134/1 65/171/1 68/172/1
f 62/153/3 64/152/3 67/173/3 66/174/3
f 71/175/24 72/176/24 69/177/24 70/178/24
f 66/174/3 67/173/3 71/179/3 70/180/3
f 68/172/1 65/171/1 69/181/1 72/182/1
f 65/183/25 66/184/25 70/178/25 69/177/25
f 17/185/6 24/186/6 23/187/6 18/188/6
f 3/3/1 1/189/1 32/1/1
f 1/189/1 9/190/1 32/1/1
f 7/6/2 3/191/2 33/4/2
f 3/191/2 10/192/2 33/4/2
f 34/5/2 11/193/2 7/6/2
f 5/9/3 7/194/3 31/7/3
f 7/194/3 11/195/3 31/7/3
f 12/10/4 9/196/4 1/11/4
f 7/13/5 5/197/5 1/14/5
f 6/16/6 2/198/6 9/17/6
f 12/18/6 31/88/6 38/87/6
f 35/79/6 32/85/6 4/80/6
f 32/85/6 9/17/6 4/80/6
f 12/18/6 38/87/6 8/81/6
f 38/87/6 35/79/6 8/81/6
f 8/81/6 6/16/6 12/18/6
f 9/17/6 2/198/6 4/80/6
f 36/82/6 37/86/6 34/83/6
f 33/84/6 10/199/6 32/85/6
f 32/85/6 35/79/6 36/82/6
f 11/200/6 34/83/6 31/88/6
f 34/83/6 37/86/6 31/88/6
