# Blender 5.0.1
# www.blender.org
o Train
v 10.325389 4.436661 1.424652
v 10.325389 7.254625 2.587252
v 10.325389 4.436661 -1.424652
v 10.325389 7.254625 -2.587252
v -9.031147 4.436661 1.424652
v -11.543939 4.870360 0.986129
v -9.619187 4.469674 1.391271
v -10.303218 4.563688 1.296211
v -10.979100 4.704391 1.153944
v -9.031147 7.192767 2.586804
v -11.852818 6.930438 1.466269
v -9.619187 7.159753 2.526193
v -10.303218 7.065740 2.353588
v -10.979100 6.925036 2.095268
v -11.543939 4.870360 -0.986129
v -9.031147 4.436661 -1.424652
v -10.979100 4.704391 -1.153944
v -10.303218 4.563688 -1.296211
v -9.619187 4.469674 -1.391271
v -9.031147 7.192767 -2.586804
v -11.852818 6.930438 -1.466269
v -9.619187 7.159753 -2.526193
v -10.303218 7.065740 -2.353588
v -10.979100 6.925036 -2.095268
v -13.523959 5.509311 -0.052296
v -13.168690 5.328524 -0.522870
v -13.168690 5.328524 0.522870
v -13.523959 5.509311 0.052296
v -12.859810 6.129532 0.825150
v -13.523959 5.604630 0.052296
v -12.859810 6.129532 -0.825150
v -13.523959 5.604630 -0.052296
v 10.325389 5.845643 -1.424652
v 10.325389 5.845643 1.424652
v -9.031147 5.556971 1.424652
v -9.619187 5.556970 1.391271
v -10.303218 5.556971 1.296211
v -10.979100 5.556970 1.153944
v -11.543939 5.556971 0.986129
v -9.031147 5.556971 -1.424652
v -9.619187 5.556970 -1.391271
v -10.303218 5.556971 -1.296211
v -10.979100 5.556970 -1.153944
v -11.543939 5.556971 -0.986129
v -13.168690 5.556971 0.522870
v -13.523959 5.556971 0.052296
v -13.168690 5.556971 -0.522870
v -13.523959 5.556971 -0.052296
v -11.695719 7.055387 -1.790558
v -11.695719 7.055387 1.790558
v -13.016910 6.004584 0.949399
v -13.016910 6.004584 -0.949399
v -11.766554 6.821977 -1.466269
v -11.766554 6.821977 1.466269
v -12.773545 6.021070 0.825150
v -12.773545 6.021070 -0.825150
vn 0.1331 0.9351 -0.3284
vn 0.1596 -0.4568 0.8752
vn 0.1270 -0.4590 -0.8793
vn -0.0019 -0.9812 0.1929
vn -0.1108 -0.9254 -0.3623
vn -0.0022 -0.9307 -0.3659
vn -0.1347 -0.9249 0.3554
vn -0.2034 -0.9135 -0.3524
vn -0.2254 -0.9009 0.3710
vn -0.2873 -0.8970 -0.3360
vn -0.2035 -0.9135 -0.3524
vn -0.3153 -0.8703 0.3783
vn -0.3448 -0.8851 -0.3125
vn 0.0017 -0.2737 0.9618
vn -0.1370 0.9169 0.3748
vn -0.1072 -0.3867 0.9159
vn -0.1072 -0.3867 0.9160
vn -0.2500 0.8953 0.3688
vn -0.1732 -0.3837 0.9071
vn -0.1732 -0.3838 0.9071
vn -0.2165 0.9007 0.3767
vn -0.2866 -0.3760 0.8812
vn -0.1522 0.7090 0.6886
vn -0.2278 -0.3697 0.9008
vn -0.0037 0.9370 -0.3493
vn -0.1370 0.9170 0.3747
vn -0.0017 0.6925 0.7214
vn -0.1667 0.9158 -0.3654
vn -0.2500 0.8953 0.3687
vn -0.2806 0.8758 -0.3928
vn -0.0785 0.9061 -0.4156
vn -0.2165 0.9006 0.3768
vn 0.0017 -0.2736 -0.9618
vn -0.1109 -0.9254 -0.3624
vn -0.1072 -0.3866 -0.9160
vn -0.2035 -0.9134 -0.3525
vn -0.1731 -0.3837 -0.9071
vn -0.1732 -0.3837 -0.9071
vn -0.2873 -0.8970 -0.3361
vn -0.2866 -0.3759 -0.8812
vn -0.2867 -0.3759 -0.8812
vn -0.3449 -0.8851 -0.3126
vn -0.2278 -0.3696 -0.9008
vn 0.0333 -0.9135 -0.4054
vn -0.0021 -0.9307 -0.3659
vn 0.1596 -0.4568 0.8751
vn 0.0373 0.9878 0.1515
vn -0.0036 0.9370 -0.3493
vn 0.0017 -0.2737 -0.9618
vn -0.3578 -0.8956 -0.2643
vn -0.6321 -0.7535 0.1808
vn -0.8344 -0.1952 -0.5154
vn -0.4102 -0.4140 0.8126
vn -0.7449 0.6547 0.1281
vn -0.8702 -0.0000 0.4927
vn -0.6054 -0.0149 -0.7958
vn -0.7449 0.6548 0.1282
vn -0.6313 0.0381 0.7746
vn -0.4102 -0.4139 -0.8126
vn -0.8702 -0.0000 -0.4927
vn -0.3394 -0.8933 0.2946
vn -0.2278 -0.3697 -0.9008
vn -0.3577 -0.8956 -0.2644
vn -0.6313 0.0382 0.7746
vn -0.2681 0.9109 0.3135
vn -0.6511 0.7566 0.0603
vn -0.9232 0.3644 0.1221
vn -0.2278 -0.3696 0.9008
vn -0.4193 -0.7238 0.5480
vn -0.3395 -0.8933 0.2947
vn -0.3876 0.3339 -0.8592
vn -0.4103 -0.4139 -0.8126
vn -0.8511 -0.0768 -0.5194
vn -0.6054 -0.0150 -0.7958
vn -0.6321 -0.7535 0.1809
vn 0.0332 -0.9135 -0.4055
vn -0.0021 -0.9306 -0.3660
vn 0.1083 -0.7435 0.6600
vn -0.0000 -0.2736 0.9618
vn -0.0019 -0.9812 0.1930
vn -0.2866 -0.3760 -0.8812
vn -0.3875 0.3339 -0.8593
vn -0.0784 0.9061 -0.4157
vn -0.0783 0.9061 -0.4156
vn -0.2805 0.8758 -0.3928
vn -0.1072 -0.3867 -0.9160
vn -0.1666 0.9158 -0.3654
vn -0.1667 0.9158 -0.3655
vn -0.2866 -0.3759 0.8812
vn -0.3152 -0.8703 0.3784
vn -0.1731 -0.3837 0.9071
vn -0.3153 -0.8703 0.3784
vn -0.2254 -0.9008 0.3711
vn -0.1072 -0.3866 0.9160
vn -0.2253 -0.9008 0.3711
vn -0.1347 -0.9249 0.3555
vn 0.0017 -0.2736 0.9618
vn 0.1270 -0.4591 -0.8793
vn 0.1082 -0.7435 0.6599
vn -0.6973 0.6947 -0.1765
vn -0.3877 0.3338 -0.8592
vn -0.2681 0.9110 0.3134
vn -0.6314 0.0381 0.7746
vn 0.0494 0.9762 -0.2110
vn -0.6972 0.6948 -0.1766
vn -0.1521 0.7090 0.6886
vn -0.5662 0.8221 -0.0602
vn -0.7580 0.6507 -0.0464
vn -0.9232 0.3644 0.1220
vn -0.7580 0.6506 -0.0463
vn -0.6972 0.6948 -0.1765
vn 0.0493 0.9762 -0.2110
vn -0.4065 0.9100 0.0811
vn -0.2680 0.9110 0.3135
vn 0.1331 0.9351 -0.3285
vn 0.0373 0.9877 0.1516
vn -0.1348 -0.9249 0.3555
vn -0.1348 -0.9249 0.3554
vn -0.2253 -0.9009 0.3710
vn -0.2872 -0.8970 -0.3360
vn -0.1371 0.9169 0.3748
vn -0.2166 0.9006 0.3768
vn -0.1369 0.9170 0.3747
vn -0.2166 0.9006 0.3767
vn -0.3876 0.3339 -0.8593
vn -0.1521 0.7090 0.6887
vn -0.0022 -0.9306 -0.3660
vn -0.1108 -0.9254 -0.3624
vn -0.1073 -0.3866 -0.9160
vn -0.2035 -0.9134 -0.3524
vn -0.2873 -0.8969 -0.3361
vn -0.3449 -0.8851 -0.3125
vn 0.0332 -0.9135 -0.4054
vn 0.1082 -0.7434 0.6600
vn 0.0373 0.9877 0.1515
vn -0.0018 0.6926 0.7214
vn -0.0018 0.6925 0.7214
vn 0.1332 0.9351 -0.3284
vn -0.4193 -0.7237 0.5481
vn -0.4103 -0.4139 0.8126
vn -0.7449 0.6547 0.1282
vn -0.8511 -0.0768 -0.5193
vn -0.7449 0.6548 0.1281
vn -0.4102 -0.4140 -0.8126
vn -0.3578 -0.8956 -0.2644
vn -0.4193 -0.7238 0.5481
vn -0.2681 0.9110 0.3135
vn -0.4065 0.9100 0.0810
vn -0.4102 -0.4139 0.8126
vn -0.4194 -0.7238 0.5480
vn -0.8511 -0.0767 -0.5194
vn -0.6322 -0.7534 0.1808
vn 0.1082 -0.7435 0.6600
vn 0.1597 -0.4568 0.8751
vn -0.3875 0.3339 -0.8592
vn -0.0785 0.9061 -0.4157
vn -0.1073 -0.3866 0.9160
vn -0.6972 0.6947 -0.1766
vn -0.6055 -0.0149 -0.7957
vn -0.6973 0.6947 -0.1766
vn -0.4066 0.9100 0.0811
vn -0.7580 0.6506 -0.0464
vn -0.5661 0.8221 -0.0602
vt 0.877233 0.345769
vt 0.876885 0.369881
vt 0.876885 0.352753
vt 0.875833 0.373481
vt 0.876530 0.370304
vt 0.876536 0.373689
vt 0.875847 0.369761
vt 0.876519 0.366326
vt 0.875878 0.365423
vt 0.876498 0.362306
vt 0.875931 0.361150
vt 0.876473 0.358841
vt 0.873298 0.462750
vt 0.873792 0.464627
vt 0.873349 0.467241
vt 0.873825 0.468332
vt 0.873432 0.472356
vt 0.873875 0.472104
vt 0.873535 0.477215
vt 0.873957 0.475964
vt 0.873643 0.481174
vt 0.875018 0.461555
vt 0.873780 0.461498
vt 0.875003 0.464709
vt 0.874969 0.468458
vt 0.874915 0.472225
vt 0.875500 0.462818
vt 0.875710 0.468437
vt 0.875446 0.467394
vt 0.875597 0.474189
vt 0.875360 0.472591
vt 0.875447 0.479479
vt 0.875251 0.477505
vt 0.875283 0.483812
vt 0.875140 0.481487
vt 0.876535 0.489869
vt 0.873300 0.345862
vt 0.873753 0.345769
vt 0.875032 0.345769
vt 0.875484 0.345811
vt 0.876422 0.348663
vt 0.876302 0.345769
vt 0.876328 0.345878
vt 0.874105 0.490340
vt 0.874363 0.491265
vt 0.874352 0.491542
vt 0.874673 0.486735
vt 0.874103 0.486770
vt 0.874663 0.490359
vt 0.874425 0.491782
vt 0.874417 0.491504
vt 0.875990 0.357569
vt 0.876561 0.394555
vt 0.876549 0.395184
vt 0.876549 0.394555
vt 0.874702 0.491427
vt 0.874634 0.485697
vt 0.874723 0.477934
vt 0.874755 0.477263
vt 0.874064 0.491381
vt 0.873496 0.483400
vt 0.874829 0.476112
vt 0.876538 0.395183
vt 0.876538 0.394555
vt 0.874407 0.491227
vt 0.874344 0.491820
vt 0.875831 0.345874
vt 0.875773 0.463090
vt 0.872953 0.345964
vt 0.873024 0.463043
vt 0.873338 0.479110
vt 0.873194 0.473895
vt 0.873085 0.468255
vt 0.876538 0.369868
vt 0.876538 0.352744
vt 0.874030 0.477132
vt 0.874143 0.485748
vt 0.926694 0.678435
vt 0.935965 0.798764
vt 0.925775 0.829006
vt 0.874060 0.477763
vt 0.874165 0.485052
vt 0.874608 0.484989
vt 0.877233 0.376858
vt 0.875833 0.489951
vt 0.876170 0.347686
vt 0.876561 0.395183
vt 0.936481 0.714004
s 0
f 4/1/1 34/2/2 33/3/3
f 5/4/4 19/5/5 16/6/6
f 7/7/7 18/8/8 19/5/5
f 8/9/9 17/10/10 18/8/11
f 9/11/12 15/12/13 17/10/10
f 35/13/14 12/14/15 36/15/16
f 36/15/17 13/16/18 37/17/19
f 37/17/20 14/18/21 38/19/22
f 38/19/22 50/20/23 39/21/24
f 20/22/25 12/14/26 10/23/27
f 22/24/28 13/16/29 12/14/26
f 23/25/30 14/18/21 13/16/29
f 24/26/31 50/20/23 14/18/32
f 40/27/33 19/28/34 41/29/35
f 41/29/35 18/30/36 42/31/37
f 42/31/38 17/32/39 43/33/40
f 43/33/41 15/34/42 44/35/43
f 3/36/44 5/4/4 16/6/45
f 34/37/46 10/23/27 35/13/14
f 20/22/25 2/38/47 4/39/1
f 20/22/48 33/40/3 40/27/49
f 26/41/50 28/42/51 25/43/52
f 45/44/53 30/45/54 46/46/55
f 52/47/56 30/45/57 51/48/58
f 47/49/59 25/50/52 48/51/60
f 6/52/61 26/41/50 15/12/13
f 30/53/57 48/54/60 46/55/55
f 44/35/62 26/56/63 47/49/59
f 39/21/24 51/48/64 45/44/53
f 31/57/65 53/58/66 21/59/67
f 39/21/68 27/60/69 6/61/70
f 44/35/62 52/47/56 49/62/71
f 46/55/55 25/63/52 28/64/51
f 47/49/72 32/65/73 52/47/74
f 45/44/53 28/66/75 27/60/69
f 40/27/33 3/67/76 16/68/77
f 1/69/78 35/13/79 5/70/80
f 43/33/81 49/62/82 24/26/83
f 42/31/38 24/26/84 23/25/85
f 41/29/86 23/25/85 22/24/87
f 40/27/49 22/24/88 20/22/48
f 38/19/89 6/61/70 9/71/90
f 37/17/91 9/71/92 8/72/93
f 36/15/94 8/72/95 7/73/96
f 35/13/97 7/73/96 5/70/4
f 33/3/98 1/74/99 3/75/76
f 11/76/100 49/62/101 21/59/67
f 31/57/102 51/48/103 29/77/104
f 21/59/67 52/47/56 31/57/102
f 11/76/105 51/48/64 50/20/106
f 53/78/66 55/79/107 54/80/108
f 21/59/109 54/81/110 11/76/105
f 11/76/111 55/82/107 29/77/104
f 29/77/112 56/83/113 31/57/114
f 4/1/115 2/84/116 34/2/46
f 5/4/4 7/7/117 19/5/5
f 7/7/118 8/9/119 18/8/11
f 8/9/9 9/11/90 17/10/120
f 9/11/12 6/52/61 15/12/13
f 35/13/14 10/23/27 12/14/26
f 36/15/17 12/14/121 13/16/18
f 37/17/19 13/16/29 14/18/32
f 38/19/22 14/18/122 50/20/23
f 20/22/25 22/24/28 12/14/123
f 22/24/28 23/25/30 13/16/29
f 23/25/30 24/26/83 14/18/124
f 24/26/83 49/62/125 50/20/126
f 40/27/33 16/68/127 19/28/128
f 41/29/129 19/28/34 18/30/130
f 42/31/38 18/30/36 17/32/131
f 43/33/40 17/32/39 15/34/132
f 3/36/133 1/85/134 5/4/4
f 34/37/46 2/38/135 10/23/136
f 20/22/25 10/23/137 2/38/47
f 20/22/25 4/39/138 33/40/3
f 26/41/50 27/86/139 28/42/51
f 45/44/140 51/48/58 30/45/141
f 52/47/56 32/65/142 30/45/143
f 47/49/144 26/56/145 25/50/52
f 6/52/61 27/86/146 26/41/50
f 30/53/57 32/87/73 48/54/60
f 44/35/62 15/34/132 26/56/50
f 39/21/24 50/20/126 51/48/64
f 31/57/147 56/83/148 53/58/66
f 39/21/24 45/44/149 27/60/150
f 44/35/62 47/49/144 52/47/56
f 46/55/55 48/54/60 25/63/52
f 47/49/144 48/51/60 32/65/151
f 45/44/53 46/46/55 28/66/152
f 40/27/33 33/40/3 3/67/76
f 1/69/153 34/37/154 35/13/97
f 43/33/81 44/35/62 49/62/155
f 42/31/38 43/33/81 24/26/156
f 41/29/86 42/31/38 23/25/30
f 40/27/49 41/29/86 22/24/87
f 38/19/89 39/21/68 6/61/70
f 37/17/91 38/19/89 9/71/90
f 36/15/157 37/17/91 8/72/93
f 35/13/97 36/15/94 7/73/117
f 33/3/3 34/2/46 1/74/134
f 11/76/158 50/20/106 49/62/82
f 31/57/102 52/47/56 51/48/64
f 21/59/67 49/62/71 52/47/159
f 11/76/160 29/77/104 51/48/103
f 53/78/66 56/88/161 55/79/107
f 21/59/67 53/58/66 54/81/110
f 11/76/111 54/81/162 55/82/163
f 29/77/112 55/82/107 56/83/148
